<?xml version="1.0" encoding="iso-8859-1"?>
<!-- Generator: Adobe Illustrator 19.0.0, SVG Export Plug-In . SVG Version: 6.00 Build 0)  -->
<svg version="1.1" id="Capa_1" xmlns="http://www.w3.org/2000/svg" xmlns:xlink="http://www.w3.org/1999/xlink" x="0px" y="0px"
	 viewBox="0 0 512 512" style="enable-background:new 0 0 512 512;" xml:space="preserve">
<g>
	<path style="fill:#E85454;" d="M83.379,249.554c-0.895,1.438,0.683,3.153,2.091,2.271l35.801-22.43
		c0.774-0.485,1.003-1.567,0.472-2.329c-11.06-15.86-31.227-26.686-56.103-26.686C29.386,200.381,0,225.282,0,256
		c0,30.827,29.503,55.62,65.64,55.62c22.545,0,42.731-9.111,54.268-24.283c0.698-0.918,0.144-1.898-0.341-3.546
		c-0.366-1.244-1.911-1.556-2.683-0.536c-4.429,5.851-17.025,19.784-36.557,19.784c-16.732,0-31.767-9.434-39.966-23.497
		c-23.058-39.41,14.617-89.961,58.425-62.24c0.744,0.471,0.958,1.499,0.483,2.262L83.379,249.554z"/>
	<path style="fill:#E85454;" d="M124.37,281.701c0,15.526,15.438,28.111,34.483,28.111c15.917,0,29.316-8.792,33.287-20.746
		l5.244,18.348c0.407,1.423,1.658,2.398,3.078,2.398h24.218c1.769,0,3.04-1.781,2.536-3.556
		c-2.275-8.016-18.145-63.944-20.396-71.876c0,0-8.093-23.054-33.628-13.334c-13.09,4.983-20.983,8.361-25.567,10.47
		c-1.417,0.652-0.963,2.864,0.585,2.864h25.445c1.692,0,3.184,1.162,3.669,2.858l7.397,25.875
		c-6.319-5.84-15.566-9.523-25.869-9.523C139.905,253.59,124.37,266.088,124.37,281.701z M172.551,264.143
		c9.522,0,17.296,8.063,17.296,18.096c0,10.322-8.261,18.627-18.244,18.07c-9.837-0.549-17.704-10.017-16.157-20.783
		C156.698,270.819,163.879,264.143,172.551,264.143z"/>
	<path style="fill:#E85454;" d="M285.013,306.636c0,1.754,1.359,3.176,3.035,3.176h25.27c1.504,0,2.724-1.276,2.724-2.85
		c0-8.172,0-64.687,0-72.464c-0.235-8.756-7.09-15.779-15.515-15.779c-7.622,0-18.477,7.08-29.624,13.513
		c-1.071,0.618-2.443,0.035-2.729-1.209c-1.625-7.067-7.204-12.303-14.477-12.303c-6.382,0-21.717,8.688-29.128,13.122
		c-1.157,0.692-0.685,2.538,0.649,2.538h10.986c1.093,0,1.979,0.927,1.979,2.07c0,6.833,0,61.739,0,71.298
		c0,1.139,0.883,2.063,1.972,2.063h26.03c1.354,0,2.451-1.148,2.451-2.564c0-0.029-0.002-67.198,0.003-67.227
		c3.373-9.031,16.374-6.669,16.374,3.631C285.013,264.335,285.013,288.453,285.013,306.636z"/>
	<path style="fill:#E85454;" d="M370.773,311.619c24.678,0,44.687-20.928,44.687-46.752c0-25.821-20.006-46.751-44.687-46.751
		c-30.487,0-51.959,31.269-42.448,61.399C334.202,298.164,350.985,311.619,370.773,311.619z M362.871,222.805
		c5.876,0,10.717,4.643,11.351,10.615c17.739,63.432,16.638,59.101,16.638,60.601c0,6.599-5.113,11.948-11.421,11.948
		c-6.17,0-11.197-5.121-11.28-11.52c-5.487-18.983-3.858-13.348-17.363-60.069C351.504,228.493,357.052,222.805,362.871,222.805z"/>
	<path style="fill:#E85454;" d="M480.971,306.636c0,1.754,1.359,3.176,3.035,3.176h25.27c1.504,0,2.724-1.276,2.724-2.85
		c0-8.172,0-64.687,0-72.464c-0.235-8.756-7.09-15.779-15.515-15.779c-7.622,0-18.477,7.08-29.624,13.513
		c-1.071,0.618-2.443,0.035-2.729-1.209c-1.625-7.067-7.204-12.303-14.477-12.303c-6.382,0-21.717,8.688-29.128,13.122
		c-1.157,0.692-0.685,2.538,0.649,2.538h10.986c1.093,0,1.979,0.927,1.979,2.07c0,6.833,0,61.739,0,71.298
		c0,1.139,0.883,2.063,1.972,2.063h26.03c1.354,0,2.451-1.148,2.451-2.564c0-0.029-0.002-67.199,0.003-67.227
		c3.373-9.031,16.374-6.669,16.374,3.631C480.971,264.335,480.971,288.453,480.971,306.636z"/>
</g>
<g>
	<path style="fill:#D84848;" d="M256.728,307.41c0-11.13,0-75.057,0-83.014c0-1.331-0.886-2.411-1.979-2.411h-10.986
		c-0.183,0-0.346-0.047-0.494-0.119c-6.618,2.934-14.15,7.253-18.699,9.975c-1.158,0.693-0.685,2.538,0.649,2.538h10.986
		c1.093,0,1.979,0.927,1.979,2.07c0,6.833,0,61.739,0,71.298c0,1.139,0.883,2.063,1.972,2.063H258.7
		C257.61,309.812,256.728,308.736,256.728,307.41z"/>
	<path style="fill:#D84848;" d="M452.686,307.41c0-11.13,0-75.057,0-83.014c0-1.331-0.886-2.411-1.979-2.411h-10.986
		c-0.183,0-0.346-0.047-0.495-0.119c-6.618,2.934-14.15,7.253-18.699,9.975c-1.157,0.693-0.684,2.538,0.649,2.538h10.986
		c1.093,0,1.979,0.927,1.979,2.07c0,6.833,0,61.739,0,71.298c0,1.139,0.883,2.063,1.972,2.063h18.544
		C453.568,309.812,452.686,308.736,452.686,307.41z"/>
	<path style="fill:#D84848;" d="M20.605,256c0-27.791,24.054-50.818,55.485-54.954c-3.378-0.433-6.863-0.665-10.45-0.665
		C29.386,200.381,0,225.282,0,256c0,30.827,29.503,55.62,65.64,55.62c3.521,0,6.975-0.248,10.357-0.68
		C44.694,306.775,20.605,283.853,20.605,256z"/>
	<path style="fill:#D84848;" d="M169.15,254.875c-3.253-0.829-6.708-1.285-10.296-1.285c-18.927,0-34.483,12.482-34.483,28.111
		c0,15.526,15.438,28.111,34.483,28.111c3.577,0,7.015-0.465,10.258-1.289C137.127,300.332,136.764,263.136,169.15,254.875z"/>
	<path style="fill:#D84848;" d="M148.211,234.38h20.605c-1.548,0-2.003-2.212-0.585-2.864c4.584-2.109,12.477-5.487,25.567-10.47
		c0.267-0.102,0.521-0.179,0.784-0.273c-5.123-2.453-12.096-3.264-21.388,0.273c-13.09,4.983-20.983,8.361-25.567,10.47
		C146.209,232.168,146.663,234.38,148.211,234.38z"/>
	<path style="fill:#D84848;" d="M348.93,279.516c-4.253-13.471-2.298-27.161,3.872-38.191c-0.63-2.18-1.297-4.486-2.007-6.945
		c0.708-5.887,6.256-11.575,12.075-11.575c2.16,0,4.177,0.632,5.9,1.721c3.751-2.313,7.872-4.07,12.28-5.154
		c-3.301-0.813-6.739-1.257-10.277-1.257c-30.487,0-51.96,31.269-42.448,61.399c5.876,18.648,22.66,32.103,42.448,32.103
		c3.542,0,6.984-0.444,10.288-1.259C365.919,306.615,353.752,294.817,348.93,279.516z"/>
</g>
<g>
</g>
<g>
</g>
<g>
</g>
<g>
</g>
<g>
</g>
<g>
</g>
<g>
</g>
<g>
</g>
<g>
</g>
<g>
</g>
<g>
</g>
<g>
</g>
<g>
</g>
<g>
</g>
<g>
</g>
</svg>
