<?xml version="1.0" encoding="UTF-8"?>
<svg width="1258px" height="430px" viewBox="0 0 1258 430" version="1.1" xmlns="http://www.w3.org/2000/svg" xmlns:xlink="http://www.w3.org/1999/xlink">
    <title>Page 1</title>
    <defs>
        <polygon id="path-1" points="65.475 0.8433 75.276 31.0086 75.276 71.4663 52.7841 78.7743 0.4617 78.7743 0.4617 0.8433"></polygon>
        <polygon id="path-3" points="65.475 0.8433 75.276 31.0086 75.276 71.4663 52.7841 78.7743 0.4617 78.7743 0.4617 0.8433"></polygon>
        <polygon id="path-5" points="65.475 0.8433 75.276 31.0086 75.276 71.4663 52.7841 78.7743 0.4617 78.7743 0.4617 0.8433"></polygon>
        <path d="M5.1093,0.0846 L5.30736923,0.0889416171 C7.1507654,0.169785375 8.83616897,1.37405172 9.4401,3.2319 L9.4401,3.2319 L9.49717171,3.42109036 C10.1480298,5.75809591 8.84527105,8.21406316 6.5169,8.9712 L6.5169,8.9712 L6.32770964,9.02820251 C3.99070409,9.67822978 1.53473684,8.37547105 0.7776,6.0471 L0.7776,6.0471 L0.720528302,5.85790782 C0.0696708449,3.52085796 1.37245263,1.06406053 3.7017,0.3078 C4.1697,0.1566 4.6431,0.0846 5.1093,0.0846 L5.1093,0.0846 Z" id="path-7"></path>
        <path d="M4.5648,0.8649 L4.76286609,0.869244717 C6.6062044,0.950145303 8.29076897,2.15522069 8.8947,4.0122 L8.8947,4.0122 L8.95170434,4.20139036 C9.6017759,6.53839591 8.29984737,8.99436316 5.9706,9.7515 L5.9706,9.7515 L5.78147886,9.8085717 C3.44530471,10.4594292 0.989360526,9.15664737 0.2331,6.8274 L0.2331,6.8274 L0.176026465,6.63820966 C-0.4748759,4.30120471 0.827052632,1.84526053 3.1563,1.089 C3.6234,0.9369 4.0977,0.8649 4.5648,0.8649 L4.5648,0.8649 Z" id="path-9"></path>
        <path d="M4.9887,0.8433 L5.18676609,0.847731547 C7.0301044,0.929385375 8.71466897,2.13365172 9.3186,3.9915 L9.3186,3.9915 L9.37567352,4.18068851 C10.0265753,6.51764855 8.72462368,8.97273947 6.3945,9.729 L6.3945,9.729 L6.20537884,9.78607353 C3.86920409,10.4369759 1.41323684,9.13504737 0.6561,6.8058 L0.6561,6.8058 L0.599095664,6.61667702 C-0.0509759003,4.28045796 1.25095263,1.82366053 3.5802,1.0674 C4.0482,0.9162 4.5225,0.8433 4.9887,0.8433 L4.9887,0.8433 Z" id="path-11"></path>
        <path d="M5.2245,0.5391 L5.42256609,0.543531547 C7.2659044,0.625185375 8.95046897,1.82945172 9.5544,3.6873 L9.5544,3.6873 L9.61147171,3.87642116 C10.2623298,6.21259591 8.95957105,8.66856316 6.6312,9.4257 L6.6312,9.4257 L6.44194229,9.48270434 C4.10415145,10.1327759 1.64906053,8.83084737 0.8928,6.5016 L0.8928,6.5016 L0.835660924,6.31240966 C0.184016967,3.97540471 1.48762895,1.51946053 3.816,0.7632 C4.2831,0.612 4.7574,0.5391 5.2245,0.5391 L5.2245,0.5391 Z" id="path-13"></path>
    </defs>
    <g id="Page-1" stroke="none" stroke-width="1" fill="none" fill-rule="evenodd">
        <g id="2.通用组件/彩色版/点线三角体备份-2" transform="translate(652.000000, 360.000000) rotate(28.000000) translate(-652.000000, -360.000000) translate(600.000000, 309.000000)">
            <g id="编组" transform="translate(0.566406, 0.673828)">
                <polygon id="路径-2" opacity="0.682407924" points="6.15234375 86.3242217 57.6379003 6.3984375 95.1152344 94.1308594"></polygon>
                <polygon id="路径-3" stroke="#597EF7" stroke-width="2.1384" stroke-linejoin="round" points="57.7089844 6.27539062 71.1761264 64.4051916 95.2382812 94.0078125"></polygon>
                <polygon id="路径-4" stroke="#597EF7" stroke-width="2.9403" stroke-linejoin="round" points="6.15234375 86.2558594 71.1210937 64.4449636 57.665412 6.27539062"></polygon>
                <polygon id="路径-5" stroke="#597EF7" stroke-width="2.1384" stroke-linejoin="round" points="6.15234375 86.2199963 95.1152344 94.0078125 71.0863957 64.4765625"></polygon>
                <circle id="椭圆形备份-12" fill="#597EF7" cx="57.7089844" cy="6.27539062" r="6.27539062"></circle>
                <circle id="椭圆形备份-13" fill="#597EF7" cx="6.27539062" cy="85.8867188" r="6.27539062"></circle>
                <circle id="椭圆形备份-14" fill="#597EF7" cx="96.7148437" cy="94.3769531" r="6.27539062"></circle>
                <circle id="椭圆形备份-15" fill="#597EF7" cx="70.2597656" cy="64.4765625" r="6.27539062"></circle>
            </g>
        </g>
        <g id="编组">
            <g>
                <g>
                    <mask id="mask-2" fill="white">
                        <use xlink:href="#path-1"></use>
                    </mask>
                    <g id="Clip-74"></g>
                    <polygon id="Stroke-73" stroke="#597EF7" stroke-width="1.0665" stroke-linejoin="round" mask="url(#mask-2)" points="24.00885 6.43923 46.33965 43.53993 69.58665 58.57533"></polygon>
                </g>
                <g>
                    <mask id="mask-4" fill="white">
                        <use xlink:href="#path-3"></use>
                    </mask>
                    <g id="Clip-76"></g>
                    <polygon id="Stroke-75" stroke="#597EF7" stroke-width="1.4661" stroke-linejoin="round" mask="url(#mask-4)" points="6.36129 73.20267 46.31139 43.57917 23.97879 6.44877"></polygon>
                </g>
                <g>
                    <mask id="mask-6" fill="white">
                        <use xlink:href="#path-5"></use>
                    </mask>
                    <g id="Clip-78"></g>
                    <polygon id="Stroke-77" stroke="#597EF7" stroke-width="1.0665" stroke-linejoin="round" mask="url(#mask-6)" points="6.35337 73.1781 69.50097 58.6026 46.29447 43.6095"></polygon>
                </g>
            </g>
            <g transform="translate(18.900000, 1.800000)">
                <mask id="mask-8" fill="white">
                    <use xlink:href="#path-7"></use>
                </mask>
                <g id="Clip-80"></g>
                <polygon id="Fill-79" fill="#597EF7" mask="url(#mask-8)" points="-7.1757 -1.62036 11.3679 -7.64586 17.3943 10.89864 -1.1511 16.92414"></polygon>
            </g>
            <g transform="translate(1.800000, 67.500000)">
                <mask id="mask-10" fill="white">
                    <use xlink:href="#path-9"></use>
                </mask>
                <g id="Clip-82"></g>
                <polygon id="Fill-81" fill="#597EF7" mask="url(#mask-10)" points="-7.72146 -0.83907 10.82304 -6.86457 16.84854 11.67993 -1.69596 17.70453"></polygon>
            </g>
            <g transform="translate(65.700000, 53.100000)">
                <mask id="mask-12" fill="white">
                    <use xlink:href="#path-11"></use>
                </mask>
                <g id="Clip-84"></g>
                <polygon id="Fill-83" fill="#597EF7" mask="url(#mask-12)" points="-7.29693 -0.86103 11.24667 -6.88653 17.27307 11.65797 -1.27233 17.68347"></polygon>
            </g>
            <g transform="translate(40.500000, 38.700000)">
                <mask id="mask-14" fill="white">
                    <use xlink:href="#path-13"></use>
                </mask>
                <g id="Clip-86"></g>
                <polygon id="Fill-85" fill="#597EF7" mask="url(#mask-14)" points="-7.0614 -1.16514 11.4822 -7.19064 17.5086 11.35386 -1.0368 17.37936"></polygon>
            </g>
        </g>
        <g id="编组" transform="translate(1207.500000, 63.500000) rotate(-90.000000) translate(-1207.500000, -63.500000) translate(1156.000000, 13.000000)">
            <polygon id="路径-2" opacity="0.682407924" points="6.15234375 86.3242217 57.6379003 6.3984375 95.1152344 94.1308594"></polygon>
            <polygon id="路径-3" stroke="#597EF7" stroke-width="2.1384" stroke-linejoin="round" points="57.7089844 6.27539062 71.1761264 64.4051916 95.2382812 94.0078125"></polygon>
            <polygon id="路径-4" stroke="#597EF7" stroke-width="2.9403" stroke-linejoin="round" points="6.15234375 86.2558594 71.1210937 64.4449636 57.665412 6.27539062"></polygon>
            <polygon id="路径-5" stroke="#597EF7" stroke-width="2.1384" stroke-linejoin="round" points="6.15234375 86.2199963 95.1152344 94.0078125 71.0863957 64.4765625"></polygon>
            <circle id="椭圆形备份-12" fill="#597EF7" cx="57.7089844" cy="6.27539062" r="6.27539062"></circle>
            <circle id="椭圆形备份-13" fill="#597EF7" cx="6.27539062" cy="85.8867188" r="6.27539062"></circle>
            <circle id="椭圆形备份-14" fill="#597EF7" cx="96.7148437" cy="94.3769531" r="6.27539062"></circle>
            <circle id="椭圆形备份-15" fill="#597EF7" cx="70.2597656" cy="64.4765625" r="6.27539062"></circle>
        </g>
    </g>
</svg>