<?xml version="1.0" encoding="UTF-8"?>
<svg width="52px" height="81px" viewBox="0 0 52 81" version="1.1" xmlns="http://www.w3.org/2000/svg" xmlns:xlink="http://www.w3.org/1999/xlink">
    <title>2.人物组件/11.人种头像类/非洲</title>
    <defs>
        <polygon id="path-1" points="0.283123674 0.16517902 30.2825814 0.16517902 30.2825814 26.9522876 0.283123674 26.9522876"></polygon>
        <polygon id="path-3" points="0.016328247 0.395849063 9.29095304 0.395849063 9.29095304 15.2990839 0.016328247 15.2990839"></polygon>
    </defs>
    <g id="Page-1" stroke="none" stroke-width="1" fill="none" fill-rule="evenodd">
        <g id="Group" transform="translate(-17.000000, -2.000000)">
            <g id="男_黑种人" transform="translate(16.964844, 2.099609)">
                <g id="编组" transform="translate(10.249259, 53.788039)">
                    <mask id="mask-2" fill="white">
                        <use xlink:href="#path-1"></use>
                    </mask>
                    <g id="Clip-2"></g>
                    <path d="M30.2646518,11.4055664 L29.7188787,0.16517902 L0.846716887,0.16517902 L0.300943859,11.3888816 C-0.098777231,19.6183134 6.27498054,26.5578858 14.4923237,26.9262337 C14.6268452,26.9326509 14.7613668,26.9377847 14.8971694,26.9429185 C23.5770104,27.252228 30.6874337,20.095754 30.2646518,11.4055664" id="Fill-1" fill="#725C5A" mask="url(#mask-2)"></path>
                </g>
                <path d="M8.33418473,49.5409998 C4.81612668,51.0759968 1.84768512,46.2117506 0.841976604,44.1338575 C-0.954205988,40.4170087 0.416632367,36.1495632 2.2205019,35.2460198 C3.87063256,34.419483 5.5873834,35.487307 5.5873834,35.487307 C5.5873834,35.487307 8.51482792,38.2479913 9.19384131,44.0863702 C9.60124934,47.5799 8.33418473,49.5409998 8.33418473,49.5409998" id="Fill-3" fill="#725C5A"></path>
                <g id="编组" transform="translate(42.278192, 34.536405)">
                    <mask id="mask-4" fill="white">
                        <use xlink:href="#path-3"></use>
                    </mask>
                    <g id="Clip-6"></g>
                    <path d="M0.957536997,15.0045952 C4.4743139,16.5395921 7.44403661,11.6753459 8.44974513,9.59745292 C10.2459277,5.88060412 8.87508936,1.61315858 7.06993867,0.709615229 C5.41980802,-0.11692159 3.70433834,0.950902375 3.70433834,0.950902375 C3.70433834,0.950902375 0.776893812,3.71158669 0.0965992635,9.54996556 C-0.309527614,13.0434954 0.957536997,15.0045952 0.957536997,15.0045952" id="Fill-5" fill="#725C5A" mask="url(#mask-4)"></path>
                </g>
                <path d="M25.0085756,10.3282449 C10.0267217,10.3282449 2.37949353,23.3911203 5.00202261,38.6281469 C6.29086689,46.1170325 6.24218291,45.9694367 7.94355986,53.4236693 C8.71609774,56.8132404 15.9981961,67.8290253 26.1590549,67.8290253 C35.6588366,67.8290253 42.5476196,57.0840467 43.3201575,53.6174691 C44.9472273,46.3133992 45.0369084,46.1478351 46.0233995,38.6281469 C48.0348165,23.297429 40.9974193,10.3282449 26.0168465,10.3282449 L25.0085756,10.3282449 Z" id="Fill-7" fill="#997C79"></path>
                <path d="M26.1039652,68.1803035 C20.9626808,68.1803035 16.804044,65.4042179 14.2212308,63.0760536 C14.0892716,62.9579769 14.0777412,62.7539096 14.1968888,62.6229985 C14.3147553,62.4908039 14.5197405,62.4805364 14.6491374,62.5986131 C17.1499565,64.8523377 21.1663848,67.5385824 26.1039652,67.5385824 C30.9544269,67.5385824 34.8760495,64.6636717 37.3115296,62.2508002 C37.437083,62.1263063 37.6395059,62.1275898 37.7650593,62.2533671 C37.8893315,62.3791444 37.8880504,62.5832118 37.762497,62.7077057 C35.2398982,65.2040009 31.1709425,68.1803035 26.1039652,68.1803035" id="Fill-9" fill="#665454"></path>
                <path d="M36.1868016,40.7160508 C36.1868016,42.1214201 35.3284261,43.2611168 34.2701902,43.2611168 C33.2119542,43.2611168 32.35486,42.1214201 32.35486,40.7160508 C32.35486,39.3106815 33.2119542,38.1709848 34.2701902,38.1709848 C35.3284261,38.1709848 36.1868016,39.3106815 36.1868016,40.7160508" id="Fill-11" fill="#232E36"></path>
                <path d="M18.3306711,40.7160508 C18.3306711,42.1214201 17.4735769,43.2611168 16.4140597,43.2611168 C15.3558238,43.2611168 14.4987295,42.1214201 14.4987295,40.7160508 C14.4987295,39.3106815 15.3558238,38.1709848 16.4140597,38.1709848 C17.4735769,38.1709848 18.3306711,39.3106815 18.3306711,40.7160508" id="Fill-13" fill="#232E36"></path>
                <path d="M27.8318621,49.4695121 L24.4047662,49.4695121 C24.0511668,49.4695121 23.7641875,49.182021 23.7641875,48.8277909 C23.7641875,48.4735609 24.0511668,48.1860698 24.4047662,48.1860698 L27.1746284,48.1860698 L26.9209592,38.4550105 C26.9183969,38.3330835 26.9504258,38.21244 27.0132025,38.1071977 L28.9669675,34.854955 C29.1488918,34.5507792 29.5422071,34.4532376 29.8458414,34.6367698 C30.1494757,34.8190186 30.2468437,35.2130354 30.0636382,35.5172112 L28.20596,38.6090236 L28.4724407,48.8111062 C28.4762842,48.9843709 28.4109452,49.1512184 28.2905164,49.2757123 C28.1700876,49.3989227 28.0048183,49.4695121 27.8318621,49.4695121" id="Fill-15" fill="#665454"></path>
                <path d="M27.6378949,58.9429845 L24.1582715,58.9429845 C23.8033909,58.9429845 23.5176928,58.6554934 23.5176928,58.3012633 C23.5176928,57.9470333 23.8033909,57.6595422 24.1582715,57.6595422 L27.6378949,57.6595422 C27.9914943,57.6595422 28.2784735,57.9470333 28.2784735,58.3012633 C28.2784735,58.6554934 27.9914943,58.9429845 27.6378949,58.9429845" id="Fill-17" fill="#665454"></path>
                <path d="M28.8020825,54.5613126 L22.6679012,54.5613126 C21.6096652,54.5613126 20.5975509,54.2314679 19.7417378,53.6064315 C19.4560397,53.3985139 19.3919819,52.9967964 19.6008105,52.7105888 C19.8096392,52.4230978 20.2093602,52.3614925 20.4963395,52.5694102 C21.1317935,53.0327328 21.8825517,53.2778703 22.6679012,53.2778703 L28.8020825,53.2778703 C29.6860811,53.2778703 30.5444565,53.0211819 31.2849655,52.5360407 C31.5796316,52.3422409 31.9780716,52.4243812 32.1715263,52.7221398 C32.3649811,53.018615 32.2817059,53.4164821 31.9857585,53.6102819 C31.0364209,54.2327514 29.9359068,54.5613126 28.8020825,54.5613126" id="Fill-19" fill="#665454"></path>
                <path d="M41.974558,21.5283322 C43.0187012,26.0601669 42.7868117,32.3605849 42.7868117,32.3605849 L44.173024,34.4769812 L45.582297,41.707895 C46.3240871,38.4582192 46.9351992,31.8420743 46.9351992,30.9757507 C46.9351992,16.9836632 39.9913264,7.10244115 26.3687804,7.10244115 C10.5913277,7.10244115 3.91777915,16.6255828 3.91777915,30.9564991 C3.91777915,36.6960529 5.64990387,41.8696087 5.64990387,41.8696087 L6.47625036,34.4769812 C6.47625036,34.4769812 7.65875858,32.5980218 7.7394715,32.3092473 C8.04054347,31.2247385 7.86630607,25.712354 8.88098269,21.5090806 C8.88098269,21.5090806 41.2532664,21.5283322 41.974558,21.5283322" id="Fill-21" fill="#665454"></path>
                <path d="M20.9031069,35.4631783 C20.8864519,35.4631783 20.8685157,35.4631783 20.8505795,35.4618948 L12.6165813,34.7970717 L10.8934246,35.3861717 C10.5564803,35.502965 10.1939127,35.3219996 10.0798897,34.9870212 C9.96458557,34.6520428 10.1439476,34.2862617 10.4783297,34.1720354 L12.3283209,33.5392983 C12.4115961,33.5110626 12.5012771,33.5007951 12.5858335,33.5072123 L20.9543532,34.1810195 C21.3066715,34.2105386 21.5693088,34.5198482 21.5411233,34.8727948 C21.514219,35.2090567 21.2336455,35.4631783 20.9031069,35.4631783" id="Fill-23" fill="#232E36"></path>
                <path d="M30.0138011,35.4631783 C29.6832625,35.4631783 29.4026891,35.2090567 29.3757848,34.8727948 C29.3475993,34.5198482 29.6102366,34.2105386 29.9625548,34.1810195 L38.3310746,33.5072123 C38.4207556,33.5007951 38.505312,33.5110626 38.5885872,33.5392983 L40.4385784,34.1720354 C40.7729605,34.2862617 40.9523225,34.6520428 40.8370184,34.9870212 C40.7229954,35.3219996 40.3604278,35.5042484 40.0234834,35.3861717 L38.3003268,34.7970717 L30.0663286,35.4618948 C30.0483924,35.4631783 30.0304562,35.4631783 30.0138011,35.4631783" id="Fill-25" fill="#232E36"></path>
                <path d="M42.8440795,28.6981541 C40.3189183,26.7717073 41.1311721,23.0060876 41.1311721,23.0060876 C37.2531088,26.2596138 33.4647266,22.7660839 33.4647266,22.7660839 C33.4647266,22.7660839 30.4591314,26.9821918 25.4088092,23.1280147 C24.3262312,25.2957486 19.1567614,25.7770395 17.4733206,22.8867275 C14.2563345,26.8012264 10.2885903,23.6093055 10.2885903,23.6093055 C10.2885903,23.6093055 10.4692334,27.7047698 8.03375334,29.1499258 L4.00579466,29.1499258 C-0.80367,26.0183266 1.69458681,21.8150532 1.60106233,21.6815752 C-0.68324121,18.4293325 0.518484376,13.6112903 4.24665224,12.7680687 C4.51697644,12.7077469 3.28450308,7.10680486 9.5365509,5.93245519 C9.29697448,3.49263144 13.624724,0.481675882 16.752029,2.77005344 C17.1773733,3.08192991 19.9984817,-1.92734525 25.1692328,1.92683187 C25.9737996,0.613870436 28.2055757,0.00038503268 29.8582686,0.00038503268 C31.6916048,0.00038503268 33.5749061,1.33131466 34.3064469,2.89069702 C38.2754724,0.842323159 42.1227879,4.57714015 42.0023591,6.86551771 C48.1339781,6.62551401 47.9546161,11.895328 47.8944017,13.4906467 C51.0204256,14.9666053 51.3509642,19.7243258 48.9756985,21.8022188 C48.9756985,21.8022188 51.6212884,25.8976831 46.8118237,28.7892785 L42.8440795,28.6981541 Z" id="Fill-27" fill="#232E36"></path>
            </g>
        </g>
    </g>
</svg>