<?xml version="1.0" encoding="UTF-8"?>
<svg width="66px" height="58px" viewBox="0 0 66 58" version="1.1" xmlns="http://www.w3.org/2000/svg" xmlns:xlink="http://www.w3.org/1999/xlink">
    <title>1.组合示例/3.功能区块示例/5.交流</title>
    <defs>
        <polygon id="path-1" points="0 0 46.4929615 0 46.4929615 46.4980087 0 46.4980087"></polygon>
        <polygon id="path-3" points="0 0 24.4762407 0 24.4762407 24.3921272 0 24.3921272"></polygon>
    </defs>
    <g id="Page-1" stroke="none" stroke-width="1" fill="none" fill-rule="evenodd">
        <g id="Group" transform="translate(-10.000000, -14.000000)">
            <g id="编组-2" transform="translate(10.513976, 14.298835)">
                <g id="分组" transform="translate(12.333574, 9.669084)">
                    <mask id="mask-2" fill="white">
                        <use xlink:href="#path-1"></use>
                    </mask>
                    <g id="Clip-2"></g>
                    <path d="M42.8151843,35.8035524 C45.142679,32.1824749 46.4930196,27.8735531 46.4930196,23.2490697 C46.4930196,10.3761205 35.961017,-0.0844717166 23.0898282,0.000501121868 C10.3880582,0.0843119387 0.104846553,10.3560756 0.000784279522,23.0545037 C-0.104367271,35.8939723 10.3013518,46.4400457 23.1397897,46.4980227 C27.7199095,46.5183369 31.9932162,45.2128055 35.6003937,42.9449748 L43.1601947,45.4128185 C44.5273827,45.85918 45.816288,44.5505983 45.3494238,43.1901614 L42.8151843,35.8035524 Z" id="Fill-1" fill="#A3B5D6" mask="url(#mask-2)"></path>
                </g>
                <g id="分组备份" transform="translate(13.553590, 43.975140) scale(-1, 1) translate(-13.553590, -43.975140) translate(0.074098, 30.495648)" fill="#E4EBF7">
                    <path d="M24.7877383,20.7283725 C26.1352352,18.6319591 26.9170113,16.1373202 26.9170113,13.4599877 C26.9170113,6.00722764 20.8195362,-0.0489046781 13.3677953,0.000290123187 C6.01413897,0.048812175 0.060700636,5.99562271 0.000454056565,13.3473443 C-0.060423157,20.7807208 5.96394049,26.8863422 13.3967203,26.9199079 C16.0483686,26.9316687 18.5223883,26.1758347 20.6107542,24.8628802 L24.9874811,26.2916317 C25.779011,26.5500516 26.5252194,25.7924517 26.2549296,25.0048303 L24.7877383,20.7283725 Z" id="Fill-1"></path>
                </g>
                <ellipse id="椭圆形" fill="#A3B5D6" cx="4.98382037" cy="28.0454639" rx="3.674877" ry="3.67527594"></ellipse>
                <g id="分组备份-2" transform="translate(40.625386, 0.000000)">
                    <g id="分组" transform="translate(0.054290, 0.000000)">
                        <mask id="mask-4" fill="white">
                            <use xlink:href="#path-3"></use>
                        </mask>
                        <g id="Clip-2"></g>
                        <path d="M12.2381203,-2.72233593e-06 C5.47918131,-2.72233593e-06 0,5.46034978 0,12.1960622 C0,18.9317474 5.47918131,24.3921272 12.2381203,24.3921272 C18.9970594,24.3921272 24.4762407,18.9317474 24.4762407,12.1960622 C24.4762407,5.46034978 18.9970594,-2.72233593e-06 12.2381203,-2.72233593e-06" id="Fill-1" fill="#597EF7" mask="url(#mask-4)"></path>
                    </g>
                    <path d="M10.3314807,16.3779644 L9.55880927,15.6060141 L17.0462422,8.09827626 C17.3022695,7.8424606 17.7173987,7.8424606 17.9734533,8.09827626 L18.2825328,8.40704 C18.5385601,8.66285566 18.5385601,9.07759744 18.2825328,9.3334131 L11.2586918,16.3779644 C11.0026645,16.6337801 10.5875353,16.6337801 10.3314807,16.3779644" id="Fill-3" fill="#FFFFFF"></path>
                    <path d="M12.0821331,15.6024221 L11.3104165,16.3772494 C11.0546783,16.6340184 10.6400621,16.6340184 10.3843511,16.3772494 L7.31139994,13.2919113 C7.05566173,13.0351696 7.05566173,12.6188821 7.31139994,12.3621131 L7.6200702,12.0521986 C7.87580841,11.7954295 8.29042463,11.7954295 8.54616284,12.0521986 L12.0821331,15.6024221 Z" id="Fill-5" fill="#FFFFFF"></path>
                </g>
            </g>
        </g>
    </g>
</svg>