<?xml version="1.0" encoding="UTF-8"?>
<svg width="59px" height="69px" viewBox="0 0 59 69" version="1.1" xmlns="http://www.w3.org/2000/svg" xmlns:xlink="http://www.w3.org/1999/xlink">
    <title>1.组合示例/3.功能区块示例/6.文件创建成功</title>
    <defs>
        <polygon id="path-1" points="0 0 24.2239083 0 24.2239083 24.2239056 0 24.2239056"></polygon>
    </defs>
    <g id="Page-1" stroke="none" stroke-width="1" fill="none" fill-rule="evenodd">
        <g id="Group" transform="translate(-13.000000, -9.000000)">
            <g id="编组" transform="translate(13.541838, 9.083966)">
                <g id="资源-22" transform="translate(0.000000, 12.135043)">
                    <polygon id="矩形" stroke="#707070" stroke-width="7.03056688" transform="translate(18.009450, 50.102164) rotate(-57.590000) translate(-18.009450, -50.102164) " points="17.2749323 49.3736181 18.7566723 49.3609143 18.7439685 50.8307094 17.2622285 50.8434131"></polygon>
                    <polyline id="路径" fill="#C1C1C1" fill-rule="nonzero" points="33.2631376 3.93092381 33.2631376 13.4055447 42.559872 13.4055447"></polyline>
                    <path d="M42.3430984,0.0675648643 L14.2526946,0.0675648643 C13.3740104,0.0675648643 12.6616961,0.793560548 12.6616961,1.68912161 L12.6616961,45.9441078 C12.6616961,46.8396688 13.3740104,47.5656645 14.2526946,47.5656645 L49.1883693,47.5656645 C50.0670535,47.5656645 50.7793678,46.8396688 50.7793678,45.9441078 L50.7793678,8.73208307 L42.3430984,0.0675648643 Z" id="路径" fill="#A3B5D6" fill-rule="nonzero"></path>
                    <path d="M42.3430984,0 L42.3563567,7.11390457 C42.3563567,8.00946563 43.068671,8.73546131 43.9473552,8.73546131 L50.7793678,8.73546131" id="路径" fill="#393D65" fill-rule="nonzero"></path>
                    <path d="M29.6170994,4.40387786 L1.59099847,4.40387786 C0.712314277,4.40387786 0,5.12987354 0,6.0254346 L0,50.2804207 C0,51.1759818 0.712314277,51.9019775 1.59099847,51.9019775 L36.5929648,51.9019775 C37.471649,51.9019775 38.1839632,51.1759818 38.1839632,50.2804207 L38.1839632,13.8784988 L32.0698887,13.8784988 C31.191525,13.8784988 29.6170994,13.1528521 29.6170994,12.256942 L29.6170994,4.40387786 Z" id="路径" fill="#E4EBF7" fill-rule="nonzero"></path>
                    <rect id="矩形" fill="#393D65" fill-rule="nonzero" x="4.17570806" y="8.72329963" width="8.48532517" height="8.64830264" rx="4.24266258"></rect>
                    <rect id="矩形" fill="#A3B5D6" fill-rule="nonzero" x="4.17570806" y="21.6957536" width="29.6986381" height="2.16207566" rx="1.08103783"></rect>
                    <rect id="矩形" fill="#A3B5D6" fill-rule="nonzero" x="4.17570806" y="28.1745484" width="29.6986381" height="2.16207566" rx="1.08103783"></rect>
                    <rect id="矩形" fill="#A3B5D6" fill-rule="nonzero" x="4.17570806" y="34.6607754" width="29.6986381" height="2.16207566" rx="1.08103783"></rect>
                    <path d="M29.6170994,4.40387786 L29.6170994,12.256942 C29.6170994,13.1525031 30.3294137,13.8784988 31.2080979,13.8784988 L38.1839632,13.8784988" id="路径" fill="#FFFFFF" fill-rule="nonzero"></path>
                </g>
                <g id="分组" transform="translate(33.709924, 0.000000)">
                    <g transform="translate(0.018504, 0.000000)">
                        <mask id="mask-2" fill="white">
                            <use xlink:href="#path-1"></use>
                        </mask>
                        <g id="Clip-2"></g>
                        <path d="M12.1119542,-2.7035612e-06 C5.4226949,-2.7035612e-06 0,5.4226922 0,12.1119515 C0,18.8011837 5.4226949,24.2239056 12.1119542,24.2239056 C18.8012134,24.2239056 24.2239083,18.8011837 24.2239083,12.1119515 C24.2239083,5.4226922 18.8012134,-2.7035612e-06 12.1119542,-2.7035612e-06" id="Fill-1" fill="#8BBC06" mask="url(#mask-2)"></path>
                    </g>
                    <path d="M10.1970059,16.2957164 L9.43891316,15.5312607 L16.7850737,8.09641353 C17.0362704,7.84308151 17.4435669,7.84308151 17.6947903,8.09641353 L17.9980382,8.40217956 C18.2492348,8.65551157 18.2492348,9.06622674 17.9980382,9.31955875 L11.1067225,16.2957164 C10.8555259,16.5490484 10.4482293,16.5490484 10.1970059,16.2957164" id="Fill-3" fill="#FFFFFF"></path>
                    <path d="M11.7940154,15.5183113 L11.0353787,16.2931386 C10.7839751,16.5499076 10.3763862,16.5499076 10.1250094,16.2931386 L7.10414213,13.2078005 C6.85273846,12.9510589 6.85273846,12.5347713 7.10414213,12.2780023 L7.40758069,11.9680878 C7.65898435,11.7113187 8.06657317,11.7113187 8.31797684,11.9680878 L11.7940154,15.5183113 Z" id="Fill-5" fill="#FFFFFF"></path>
                </g>
            </g>
        </g>
    </g>
</svg>