<svg id="Capa_1" enable-background="new 0 0 497 497" height="512" viewBox="0 0 497 497" width="512" xmlns="http://www.w3.org/2000/svg"><g><path d="m190.927 418.575v49.639c0 15.898 12.888 28.786 28.786 28.786 15.898 0 28.786-12.888 28.786-28.786v-49.639z" fill="#b9ebc2"/><path d="m248.5 418.575v49.639c0 15.898 12.888 28.786 28.786 28.786 15.898 0 28.786-12.888 28.786-28.786v-49.639z" fill="#8bdf9e"/><path d="m358.802 394.573-12.68-51.902-97.622-29.767-97.621 29.767-12.68 51.902c-5.435 22.246 11.411 43.703 34.312 43.703h151.98c22.9 0 39.746-21.457 34.311-43.703z" fill="#6a647f"/><path d="m87.962 180.02-12.069 39.08c-6.622 21.444-2.93 44.746 9.997 63.092 13.568 19.256 35.653 30.711 59.209 30.711h45.187v-160.551z" fill="#ff995d"/><path d="m409.038 180.02 12.069 39.08c6.622 21.444 2.93 44.746-9.997 63.092-13.568 19.256-35.653 30.711-59.209 30.711h-45.187v-160.551z" fill="#ffa875"/><circle cx="248.5" cy="224.748" fill="#8bdf9e" r="128.239"/><path d="m340.9 75.388-92.4 21.122-92.4-21.122 50.738-56.744c10.601-11.866 25.75-18.644 41.662-18.644s31.061 6.778 41.662 18.644z" fill="#bc9bdd"/><path d="m262.959 1.905c-4.671-1.251-9.528-1.905-14.459-1.905-15.912 0-31.061 6.778-41.662 18.644l-50.738 56.744 37.525 8.578c13.532-34.362 38.099-63.168 69.334-82.061z" fill="#b08bd7"/><path d="m384.976 124.687-136.476 31.157-136.476-31.157 44.076-49.299h184.8z" fill="#ffa875"/><path d="m197.293 75.388h-41.193l-44.076 49.299 70.075 15.998c.631-23.261 6.01-45.335 15.194-65.297z" fill="#ff995d"/><path d="m430.33 150.039c-5.298-15.184-19.621-25.355-35.702-25.355h-292.256c-16.081 0-30.404 10.171-35.702 25.355-5.115 14.659 5.766 29.981 21.292 29.981h321.077c15.525 0 26.407-15.322 21.291-29.981z" fill="#bc9bdd"/><g fill="#fff"><ellipse cx="167.181" cy="248.065" rx="30.005" ry="23.895"/><ellipse cx="329.819" cy="248.065" rx="30.005" ry="23.895"/></g><g><path d="m184.668 232.563c-4.142 0-7.5-3.358-7.5-7.5v-12.266c0-4.142 3.358-7.5 7.5-7.5s7.5 3.358 7.5 7.5v12.266c0 4.142-3.358 7.5-7.5 7.5z" fill="#423e4f"/></g><g><path d="m312.332 232.563c-4.142 0-7.5-3.358-7.5-7.5v-12.266c0-4.142 3.358-7.5 7.5-7.5s7.5 3.358 7.5 7.5v12.266c0 4.142-3.358 7.5-7.5 7.5z" fill="#423e4f"/></g><g><path d="m248.5 239.865c-8.618 0-16.813-3.732-22.483-10.239-2.721-3.123-2.396-7.86.727-10.582 3.123-2.721 7.86-2.396 10.582.727 2.821 3.237 6.895 5.094 11.175 5.094s8.353-1.857 11.174-5.094c2.721-3.123 7.459-3.448 10.582-.727s3.448 7.459.727 10.582c-5.672 6.506-13.867 10.239-22.484 10.239z" fill="#423e4f"/></g><path d="m200.261 388.337c0-24.395 6.919-47.17 18.891-66.484l-68.274 20.818-12.68 51.902c-5.435 22.246 11.411 43.704 34.312 43.704h38.01c-6.597-15.32-10.259-32.202-10.259-49.94z" fill="#5c586f"/><path d="m311.043 285.642-3.332-2.384c-7.104-5.083-16.622-5.014-23.745.043-7.076 5.024-16.562 5.009-23.624-.043-7.082-5.067-16.603-5.067-23.685 0-7.062 5.052-16.549 5.067-23.624.043-7.123-5.057-16.64-5.126-23.745-.043l-3.332 2.384c-5.341 3.821-8.51 9.985-8.51 16.553v71.309c0 17.882 14.496 32.378 32.378 32.378h77.351c17.882 0 32.378-14.496 32.378-32.378v-71.309c.001-6.568-3.168-12.732-8.51-16.553z" fill="#bc9bdd"/><path d="m216.371 328.141c0-14.623 3.09-28.522 8.643-41.089-4.193.041-8.396-1.206-11.98-3.751-7.123-5.057-16.64-5.125-23.745-.042l-3.332 2.384c-5.341 3.821-8.51 9.985-8.51 16.553v71.309c0 17.882 14.496 32.378 32.378 32.378h42.647c-22.078-18.669-36.101-46.565-36.101-77.742z" fill="#b08bd7"/><path d="m178.638 302.18h-20.657c-13.763 0-24.92 11.157-24.92 24.92 0 13.763 11.157 24.92 24.92 24.92h20.657c13.763 0 24.92-11.157 24.92-24.92 0-13.762-11.157-24.92-24.92-24.92z" fill="#b9ebc2"/><path d="m318.362 302.18h20.657c13.763 0 24.92 11.157 24.92 24.92 0 13.763-11.157 24.92-24.92 24.92h-20.657c-13.763 0-24.92-11.157-24.92-24.92 0-13.762 11.157-24.92 24.92-24.92z" fill="#b9ebc2"/><path d="m182.033 145.308c0-6.984.435-13.865 1.265-20.625h-80.926c-16.081 0-30.404 10.171-35.702 25.355-5.115 14.659 5.766 29.981 21.292 29.981h97.683c-2.361-11.199-3.612-22.808-3.612-34.711z" fill="#b08bd7"/></g></svg>