<?xml version="1.0" encoding="UTF-8"?>
<svg width="66px" height="63px" viewBox="0 0 66 63" version="1.1" xmlns="http://www.w3.org/2000/svg" xmlns:xlink="http://www.w3.org/1999/xlink">
    <title>1.组合示例/3.功能区块示例/8.搜索</title>
    <defs>
        <polygon id="path-1" points="0.0129927398 0.0174996616 3.10632298 0.0174996616 3.10632298 3.16760101 0.0129927398 3.16760101"></polygon>
        <polygon id="path-3" points="0.00765322529 0.0268907201 3.38305821 0.0268907201 3.38305821 3.4257339 0.00765322529 3.4257339"></polygon>
    </defs>
    <g id="Page-1" stroke="none" stroke-width="1" fill="none" fill-rule="evenodd">
        <g id="Group" transform="translate(-8.000000, -13.000000)">
            <g id="编组-4" transform="translate(8.074636, 13.962392)">
                <g id="编组-2" transform="translate(5.676918, 0.000000)">
                    <polygon id="Fill-1" fill="#DDDDEA" points="9.52399568 47.9899812 7.83026368 46.2943543 21.3823653 32.7270159 23.0760973 34.4227177"></polygon>
                    <g id="编组" transform="translate(14.970893, 0.000000)" fill="#99A7C7">
                        <path d="M20.3961652,35.709774 C11.9625371,35.709774 5.12585417,28.8653674 5.12585417,20.4223788 C5.12585417,11.9793902 11.9625371,5.1349836 20.3961652,5.1349836 C28.8296436,5.1349836 35.6664762,11.9793902 35.6664762,20.4223788 C35.6664762,28.8653674 28.8296436,35.709774 20.3961652,35.709774 M20.3961652,0.039185191 C9.15137764,0.039185191 0.0357504929,9.16501075 0.0357504929,20.4223788 C0.0357504929,31.6796719 9.15137764,40.8055724 20.3961652,40.8055724 C31.6408779,40.8055724 40.7565799,31.6796719 40.7565799,20.4223788 C40.7565799,9.16501075 31.6408779,0.039185191 20.3961652,0.039185191" id="Fill-2"></path>
                    </g>
                    <path d="M35.3670584,31.2293307 C29.4051996,31.2293307 24.5721461,26.3908702 24.5721461,20.4223413 C24.5721461,14.4538875 29.4051996,9.61542687 35.3670584,9.61542687 C41.3289172,9.61542687 46.1618958,14.4538875 46.1618958,20.4223413 C46.1618958,26.3908702 41.3289172,31.2293307 35.3670584,31.2293307" id="Fill-4" fill="#CED7EC"></path>
                    <path d="M35.3670584,26.4174358 C32.0596887,26.4174358 29.3787011,23.7333738 29.3787011,20.4223788 C29.3787011,17.1113838 32.0596887,14.4273219 35.3670584,14.4273219 C38.6743532,14.4273219 41.3554156,17.1113838 41.3554156,20.4223788 C41.3554156,23.7333738 38.6743532,26.4174358 35.3670584,26.4174358" id="Fill-6" fill="#FFFFFF"></path>
                    <polygon id="Fill-8" fill="#393D65" points="3.80676129 55.4092464 0.419297291 52.0179176 14.012494 38.4094381 17.4000329 41.8007669"></polygon>
                    <g id="编组" transform="translate(0.000000, 49.983787)" fill="#CAD1EA">
                        <polygon id="Fill-10" points="4.22602864 5.84518802 -2.99417863e-05 1.61440139 1.54691245 0.0657283056 5.77304588 4.29651493"></polygon>
                    </g>
                </g>
                <g id="资源-35" opacity="0.4" transform="translate(0.000000, -0.000000)" fill-rule="nonzero">
                    <g id="资源-34">
                        <path d="M0.537188682,12.3815242 C0.464469873,12.3815242 0.397665515,12.3404386 0.363611861,12.2745194 C0.0246873316,11.6191401 -0.0780808629,10.863039 0.0585606472,10.0276169 C0.18792992,9.2361748 0.5264717,8.40644658 1.06480863,7.5612076 C2.15889758,5.84343851 3.96260379,4.24308009 6.14350946,3.05503337 C8.32441513,1.86698665 10.6268437,1.23104494 12.6270917,1.26344086 C13.6109488,1.27934431 14.4706038,1.456442 15.1819435,1.78982546 C15.9332804,2.14186112 16.4859704,2.65253862 16.8252777,3.30811422 C16.8760633,3.4063021 16.8396488,3.52813693 16.7439435,3.58023994 C16.6482382,3.63234295 16.5294838,3.59498379 16.4786982,3.49679591 C16.1809192,2.92152292 15.6898518,2.47033611 15.0190836,2.15599752 C14.3571187,1.84597839 13.5502831,1.68105371 12.6207763,1.66515026 C10.6859785,1.63334336 8.45091378,2.25416698 6.32761189,3.40981777 C4.20430999,4.56546857 2.45170082,6.11949101 1.39320755,7.78149985 C0.884725071,8.58001018 0.565894881,9.35790492 0.445520218,10.0941758 C0.323423182,10.8402637 0.412603775,11.5103683 0.710382752,12.0856413 C0.74258554,12.1478861 0.740743236,12.2228701 0.705524664,12.2833714 C0.670306091,12.3438727 0.60683191,12.3810945 0.538145555,12.3815242 L0.537188682,12.3815242 Z" id="路径" fill="#99A7C7"></path>
                        <ellipse id="椭圆形" fill="#6E718D" opacity="0.33" cx="8.28575745" cy="7.19444652" rx="7.01254181" ry="7.19444652"></ellipse>
                        <path d="M13.0010378,8.94088109 C13.4140243,7.81075434 13.620709,7.38685865 13.0010378,7.19464286 C12.3813666,7.00242707 11.4863073,8.2344537 10.6595688,7.64013584 C9.83283023,7.04581797 10.9349569,5.76235054 10.5906739,5.02765036 C10.2463909,4.29295017 9.83321298,4.2083281 10.0398976,2.8200157 C10.1447709,2.11555171 10.7803262,1.33510456 11.3810513,0.73744893 C10.4184757,0.250953502 9.35956095,-0.00139370365 8.28652295,-5.74172448e-06 C8.00625086,-5.74172448e-06 7.72622539,0.0170510856 7.44791917,0.0510481155 C8.02950677,1.35866523 6.97426688,2.31228329 6.18484639,3.63541118 C5.22089221,5.25226206 5.56517523,6.25673191 7.5617871,6.64587562 C9.55839896,7.03501933 9.3519057,9.50594446 7.5617871,10.1407081 C5.77166849,10.7754718 6.32244477,8.16396804 5.22089221,8.15120601 C4.11933964,8.13844398 3.01778708,7.88143635 2.9488922,6.82297331 C2.91061726,6.22276528 2.16215095,5.66143234 1.5220027,5.28799575 C1.35631245,5.90926543 1.27263666,6.55053753 1.27321265,7.19464286 C1.27321265,11.1679533 4.41290838,14.3890954 8.28594882,14.3890954 C10.0816322,14.3914773 11.8093172,13.6846845 13.1106955,12.4152944 C12.6173316,11.2423657 12.6982831,9.76923493 13.0010378,8.94088109 Z" id="路径" fill="#E4EBF7"></path>
                        <path d="M2.9488922,6.82297331 C3.01778708,7.88143635 4.11933964,8.13844398 5.22089221,8.15120601 C6.32244477,8.16396804 5.77166849,10.7774352 7.5617871,10.1416898 C9.3519057,9.50594446 9.55839896,7.03501933 7.5617871,6.64685731 C5.56517523,6.2586953 5.22089221,5.25285108 6.18484639,3.63639287 C6.97350138,2.31326499 8.02874128,1.35886157 7.44791917,0.05202981 C4.59299193,0.399942351 2.26491915,2.5076405 1.5220027,5.28799575 C2.1625337,5.66143234 2.90985176,6.22276528 2.9488922,6.82297331 Z" id="路径" fill="#6E718D"></path>
                        <path d="M2.9488922,6.82297331 C3.01778708,7.88143635 4.11933964,8.13844398 5.22089221,8.15120601 C6.32244477,8.16396804 5.77166849,10.7774352 7.5617871,10.1416898 C9.3519057,9.50594446 9.55839896,7.03501933 7.5617871,6.64685731 C5.56517523,6.2586953 5.22089221,5.25285108 6.18484639,3.63639287 C6.97350138,2.31326499 8.02874128,1.35886157 7.44791917,0.05202981 C4.59299193,0.399942351 2.26491915,2.5076405 1.5220027,5.28799575 C2.1625337,5.66143234 2.90985176,6.22276528 2.9488922,6.82297331 Z" id="路径" fill="#393D65"></path>
                        <path d="M15.2983052,7.19464286 C15.2983052,4.36127611 13.7018518,1.91057389 11.3816254,0.73744893 C10.7809003,1.33510456 10.1453451,2.11555171 10.0404717,2.8200157 C9.83378711,4.2083281 10.246965,4.29255749 10.591248,5.02765036 C10.935531,5.76274322 9.83378711,7.04581797 10.6595688,7.64013584 C11.4853505,8.2344537 12.3819408,7.00223073 13.0010378,7.19464286 C13.6201348,7.38705499 13.4140243,7.81075434 13.0010378,8.94088109 C12.6982831,9.76923493 12.6173316,11.2423657 13.1106955,12.4160797 C14.5094212,11.0587737 15.3008074,9.16987004 15.2983052,7.19464286 L15.2983052,7.19464286 Z" id="路径" fill="#99A7C7"></path>
                        <path d="M10.9537116,12.5509659 C10.8634855,12.5512033 10.7847373,12.4882674 10.7628862,12.3984561 C10.7410351,12.3086448 10.7817174,12.2151244 10.8614691,12.1718341 C12.9857278,11.0152016 14.7371887,9.46235722 15.795682,7.80113374 C16.3051214,7.00281975 16.6229947,6.22394331 16.7433693,5.48826143 C16.8654664,4.74217359 16.7764772,4.0720689 16.4786982,3.49679591 C16.4279126,3.39860803 16.4643271,3.2767732 16.5600324,3.22467019 C16.6557377,3.17256718 16.7744921,3.20992634 16.8252777,3.30811422 C17.1643936,3.96349349 17.2671618,4.71939827 17.1314772,5.55501666 C17.0019165,6.34645879 16.6633747,7.176187 16.1252292,8.02122965 C15.0311402,9.73919508 13.227434,11.3393572 11.046337,12.5274039 C11.0178345,12.5429909 10.9860103,12.5510858 10.9537116,12.5509659 Z" id="路径" fill="#A3B5D6"></path>
                        <ellipse id="椭圆形" fill="#A3B5D6" cx="4.74666579" cy="13.646143" rx="1.5507089" ry="1.59093415"></ellipse>
                    </g>
                </g>
                <g id="编组" transform="translate(50.082930, 55.806653) rotate(-25.000000) translate(-50.082930, -55.806653) translate(34.064871, 51.055251)">
                    <g transform="translate(10.206197, 6.335202)">
                        <mask id="mask-2" fill="white">
                            <use xlink:href="#path-1"></use>
                        </mask>
                        <g id="Clip-2"></g>
                        <path d="M3.09812624,1.75327985 C3.01094363,2.61850702 2.25152281,3.2480931 1.40190363,3.1593089 C0.552010292,3.0705247 -0.0662185712,2.29715288 0.0212381948,1.43164652 C0.108420802,0.566419346 0.867841623,-0.0631667359 1.7174608,0.0258966611 C2.56707998,0.114680863 3.18530884,0.88805268 3.09812624,1.75327985" id="Fill-1" fill="#E4E6EF" mask="url(#mask-2)"></path>
                    </g>
                    <path d="M23.239186,2.32131978 C23.1512987,3.19133827 22.3857396,3.82441078 21.5292532,3.73513492 C20.6724903,3.64585906 20.0492644,2.86792385 20.1371517,1.99790536 C20.2253154,1.12788686 20.9908744,0.494814357 21.8473609,0.584370956 C22.7038474,0.673366071 23.3270733,1.45130129 23.239186,2.32131978" id="Fill-3" fill="#E4E6EF"></path>
                    <path d="M3.11026726,1.74549147 C3.02246113,2.61559823 2.25663898,3.24840315 1.39995656,3.15922109 C0.543528658,3.06978052 -0.0797676089,2.29221631 0.0082930314,1.42210954 C0.0960991612,0.552002779 0.86192132,-0.0808021405 1.71834922,0.00837992537 C2.57503164,0.0975619912 3.1983279,0.875384704 3.11026726,1.74549147" id="Fill-5" fill="#E4E6EF"></path>
                    <g transform="translate(28.634053, 4.031492)">
                        <mask id="mask-4" fill="white">
                            <use xlink:href="#path-3"></use>
                        </mask>
                        <g id="Clip-8"></g>
                        <path d="M3.37429824,1.89980709 C3.27898531,2.83343365 2.45036882,3.51243478 1.52313374,3.41674222 C0.595898667,3.32077229 -0.0784541144,2.4864441 0.0165833486,1.55281753 C0.111896283,0.619190973 0.940512772,-0.0598101627 1.86774785,0.0358823993 C2.79470745,0.131852331 3.4693357,0.966180524 3.37429824,1.89980709" id="Fill-7" fill="#E4E6EF" mask="url(#mask-4)"></path>
                    </g>
                    <polygon id="Fill-9" fill="#E4E6EF" points="11.7868459 8.06298439 11.7488258 8.03869306 1.70103285 1.57126172 1.78100615 1.43981864 11.7910412 7.88322856 21.9298201 2.04332321 21.9631205 2.05681839 30.6185914 5.55288042 30.5635278 5.69673906 21.941095 2.21417222"></polygon>
                </g>
            </g>
        </g>
    </g>
</svg>