<svg id="Layer_1" enable-background="new 0 0 497 497" height="512" viewBox="0 0 497 497" width="512" xmlns="http://www.w3.org/2000/svg"><g><g><path d="m263.949 11.605c-5.008-10.258-17.385-14.515-27.642-9.504l-53.857 26.298c-6.125 2.991-10.381 8.808-11.378 15.551l-13.636 92.27 20.796 13.78 20.99-13.779 11.151-75.454 44.071-21.52c10.258-5.009 14.513-17.385 9.505-27.642z" fill="#ff8e9e"/><g><path d="m216.058 98.5h-85.028c-32.033 0-58 25.967-58 58v282.494c0 32.033 25.967 58 58 58h59.545c15.695 0 28.737-12.097 29.915-27.748l25.483-338.493c1.31-17.407-12.46-32.253-29.915-32.253z" fill="#b9f0ff"/><path d="m93.03 457.294v-318.794c0-22.091 17.909-40 40-40h-103.028c-17.456 0-31.226 14.846-29.915 32.252l25.483 338.494c1.178 15.651 14.22 27.748 29.915 27.748h72.714c-19.812-2.387-35.169-19.244-35.169-39.7z" fill="#7ce3ff"/></g><g><path d="m194.4 416.183 17.079-226.864h-118.449l-20 18.674v210.38l20 18.621h78.933c11.771 0 21.553-9.073 22.437-20.811z" fill="#ffce71"/><path d="m34.581 189.318 17.079 226.864c.884 11.738 10.665 20.811 22.437 20.811h18.933v-247.675z" fill="#ffb357"/></g></g><g><g><path d="m309.622 269.33-19.41 19.41v186.785l35.105 21.469 111.683-.006c16.568 0 30-13.432 30-30v-197.658c-2.362 0-80.877 0-157.378 0z" fill="#fad5cb"/><path d="m303.581 385.228.003-77.553c0-13.141 2.078-26.067 6.038-38.345-72.553 0-143.294 0-145.541 0v197.67c0 16.568 13.431 30 30 30l131.236-.006c-13.834-14.173-21.736-29.709-21.736-49.665z" fill="#ffb39d"/></g><g><path d="m467 369.318h-145.527v30h145.527c8.284 0 15-6.716 15-15s-6.716-15-15-15z" fill="#ffb5c0"/><path d="m321.473 369.33h-157.392c-8.525 0-15.389 7.111-14.983 15.726.38 8.067 7.33 14.274 15.407 14.274h34.076c8.633 0 15 7.221 15 15.393v17.299c0 7.699 5.641 14.455 13.294 15.299 9.036.998 16.685-6.04 16.706-14.869.015-6.425 3.831-12.328 9.964-14.241 11.068-3.452 20.036 4.9 20.036 14.599v19.605c0 8.847 7.658 15.904 16.706 14.905 7.653-.844 13.294-7.6 13.294-15.299v-37.692c0-8.284 6.715-14.999 14.999-14.999h2.894c8.346 0 15.282-6.705 15.262-15.051-.02-8.6-7.192-14.949-15.263-14.949z" fill="#ff8e9e"/></g><g><path d="m447 219.318-106.822.012-49.966 13.032v92.083l13.371 13.371c18.419 4.836 37.163-2.418 45.474-12.391 20.614-20.613 52.852-16.198 67.036.012 12.221 12.221 29.572 16.446 45.345 12.392.015-.004.03-.008.045-.012 20.427-5.271 35.517-23.819 35.517-45.893v-22.605c0-27.663-22.452-50.001-50-50.001z" fill="#ffb5c0"/><path d="m340.178 219.33h-156.097c-27.614 0-50 22.386-50 50v22.605c0 26.176 21.219 47.395 47.394 47.395 12.129 0 24.258-4.627 33.512-13.881l.01-.012c18.508-18.508 48.517-18.508 67.025 0l.01.012c6.185 6.184 13.658 10.295 21.551 12.367v-30.141c.001-33.135 13.164-64.914 36.595-88.345z" fill="#ff8e9e"/></g></g><g fill="#313d40"><path d="m253.092 262.356c-4.142 0-7.5 3.357-7.5 7.5v12c0 4.143 3.358 7.5 7.5 7.5s7.5-3.357 7.5-7.5v-12c0-4.142-3.358-7.5-7.5-7.5z"/><path d="m377.99 262.356c-4.143 0-7.5 3.357-7.5 7.5v12c0 4.143 3.357 7.5 7.5 7.5s7.5-3.357 7.5-7.5v-12c0-4.142-3.358-7.5-7.5-7.5z"/><path d="m336.933 275.845c-3.122-2.722-7.86-2.396-10.582.727-2.729 3.132-6.67 4.929-10.811 4.929s-8.08-1.796-10.81-4.928c-2.721-3.123-7.459-3.449-10.581-.728-3.123 2.721-3.448 7.459-.727 10.581 5.579 6.402 13.64 10.074 22.118 10.074s16.539-3.672 22.119-10.073c2.721-3.122 2.397-7.861-.726-10.582z"/></g></g></svg>