<svg id="Capa_1" enable-background="new 0 0 497 497" height="512" viewBox="0 0 497 497" width="512" xmlns="http://www.w3.org/2000/svg"><g><path d="m306.625 395.001v72.937c0 16.051-13.012 29.063-29.063 29.063-16.051 0-29.063-13.012-29.063-29.063l-15.954-29.327 15.954-43.61z" fill="#8bdf9e"/><path d="m190.375 395.001v72.937c0 16.051 13.012 29.063 29.063 29.063 16.051 0 29.063-13.012 29.063-29.063v-72.937z" fill="#b9ebc2"/><path d="m417.587 341.662c-23.799-17.205-48.844-29.115-74.439-35.4-19.529-4.795-32.454-4.508-34.846-4.402-15.197.681-26.982 13.551-26.308 28.755.676 15.204 13.55 26.983 28.755 26.308.319-.014 33.739-.094 74.547 29.407 12.367 8.94 29.585 6.113 38.479-6.189 8.918-12.335 6.147-29.563-6.188-38.479z" fill="#fed2a4"/><path d="m79.413 341.662c23.799-17.205 48.844-29.115 74.439-35.4 19.529-4.795 32.454-4.508 34.846-4.402 15.197.681 26.982 13.551 26.308 28.755-.676 15.204-13.55 26.983-28.755 26.308-.319-.014-33.739-.094-74.547 29.407-12.367 8.94-29.585 6.113-38.479-6.189-8.918-12.335-6.147-29.563 6.188-38.479z" fill="#fed2a4"/><path d="m72.899 175.599c0-46.861 18.652-89.546 52.519-120.191 32.346-29.269 76.057-45.388 123.082-45.388s90.736 16.119 123.082 45.388c33.868 30.645 52.519 73.33 52.519 120.191z" fill="#5c586f"/><circle cx="394.037" cy="185.62" fill="#ffbd86" r="39.558"/><path d="m394.037 175.599c0 80.378-65.159 125.495-145.537 125.495s-145.537-45.117-145.537-125.495 65.159-135.516 145.537-135.516 145.537 55.138 145.537 135.516z" fill="#fed2a4"/><path d="m185.961 290.802c-29.863-31.597-48.179-74.223-48.179-121.131 0-43.899 16.042-84.048 42.577-114.917-37.589 17.544-65.383 49.836-74.321 91.444-.995-.082-2.013-.136-3.074-.136-21.847 0-39.558 17.711-39.558 39.558s17.711 39.558 39.558 39.558c3.385 0 6.428-.427 9.158-1.227 13.242 32.005 39.915 54.699 73.839 66.851z" fill="#ffbd86"/><path d="m378.778 48.411c-.157-.143-.315-.287-.473-.429-34.193-30.946-80.29-47.982-129.805-47.982s-95.612 17.036-129.805 47.982c-.158.143-.316.286-.473.429-19.034 17.349-6.553 49.085 19.201 49.085h222.153c25.754 0 38.235-31.736 19.202-49.085z" fill="#ffa875"/><path d="m308.302 301.86c-15.197.682-26.982 13.551-26.308 28.755.676 15.205 13.55 26.983 28.755 26.308.319-.014 33.739-.094 74.547 29.407 1.018.736 2.071 1.384 3.148 1.962 9.407-19.453 11.681-40.754 6.971-60.916-17.003-9.672-34.503-16.751-52.268-21.113-19.528-4.797-32.453-4.509-34.845-4.403z" fill="#ffbd86"/><path d="m215.005 330.615c.675-15.205-11.111-28.074-26.307-28.755-2.392-.106-15.317-.393-34.846 4.402-17.765 4.362-35.265 11.441-52.268 21.113-4.71 20.162-2.435 41.464 6.971 60.916 1.076-.578 2.13-1.226 3.148-1.962 40.808-29.5 74.229-29.421 74.547-29.407 15.205.676 28.08-11.102 28.755-26.307z" fill="#ffbd86"/><path d="m361.885 311.537-12.036-18.65c-12.364-19.158-33.607-30.732-56.408-30.732h-89.882c-22.802 0-44.045 11.573-56.409 30.732l-12.036 18.65c-28.136 43.598 1.686 102.006 53.554 103.478.679.019 1.361.029 2.046.029h115.569c.685 0 1.367-.01 2.046-.029 51.87-1.472 81.692-59.88 53.556-103.478z" fill="#ffa875"/><g><path d="m229.559 391.987c-4.642 0-9.284-1.284-13.425-3.853-3.402-2.111-7.63-2.111-11.033 0-3.521 2.184-8.144 1.1-10.327-2.419-2.184-3.52-1.101-8.143 2.419-10.327 8.28-5.137 18.568-5.138 26.849 0 3.402 2.111 7.63 2.111 11.033 0 8.28-5.138 18.569-5.137 26.849 0 3.402 2.111 7.631 2.111 11.033 0 8.28-5.137 18.569-5.138 26.849 0 3.52 2.184 4.603 6.807 2.419 10.327s-6.809 4.603-10.327 2.419c-3.403-2.111-7.631-2.111-11.034 0-8.28 5.137-18.569 5.137-26.849 0-3.403-2.111-7.63-2.112-11.033 0-4.139 2.568-8.781 3.853-13.423 3.853z" fill="#423e4f"/></g><g fill="#423e4f"><path d="m204.779 323.483-10.562-15.261c-3.506-5.066-10.994-5.066-14.5 0l-10.562 15.261c-4.047 5.848.138 13.835 7.25 13.835h21.123c7.112-.001 11.298-7.988 7.251-13.835z"/><path d="m292.221 323.483 10.562-15.261c3.506-5.066 10.994-5.066 14.5 0l10.562 15.261c4.047 5.848-.138 13.835-7.25 13.835h-21.123c-7.112-.001-11.298-7.988-7.251-13.835z"/><path d="m263.152 343.062-8.688-12.554c-2.884-4.167-9.044-4.167-11.928 0l-8.688 12.554c-3.329 4.811.114 11.381 5.964 11.381h17.376c5.851-.001 9.294-6.571 5.964-11.381z"/></g><path d="m190.375 415.043h58.125v30.957h-58.125z" fill="#8bdf9e"/><path d="m248.5 415.043h58.125v30.957h-58.125z" fill="#73d98b"/><path d="m263.897.566c-5.09-.369-10.223-.566-15.397-.566-49.515 0-95.612 17.036-129.805 47.981-.158.143-.315.286-.473.429-19.034 17.35-6.553 49.085 19.201 49.085h15.758c20.863-46.462 61.25-82.246 110.716-96.929z" fill="#ff995d"/><g><g><g><ellipse cx="156.387" cy="208.911" fill="#ff9db0" rx="33.988" ry="27.066"/></g><g><ellipse cx="340.613" cy="208.911" fill="#ff9db0" rx="33.988" ry="27.066"/></g></g></g><g><path d="m176.195 190.356c-4.142 0-7.5-3.358-7.5-7.5v-13.894c0-4.142 3.358-7.5 7.5-7.5s7.5 3.358 7.5 7.5v13.894c0 4.142-3.357 7.5-7.5 7.5z" fill="#423e4f"/></g><g><path d="m320.804 190.356c-4.142 0-7.5-3.358-7.5-7.5v-13.894c0-4.142 3.358-7.5 7.5-7.5s7.5 3.358 7.5 7.5v13.894c0 4.142-3.358 7.5-7.5 7.5z" fill="#423e4f"/></g><g><path d="m248.5 198.627c-9.473 0-18.482-4.103-24.717-11.257-2.721-3.123-2.396-7.86.727-10.582 3.123-2.721 7.859-2.397 10.582.726 3.385 3.884 8.272 6.112 13.409 6.112s10.023-2.228 13.408-6.112c2.721-3.123 7.459-3.448 10.582-.726 3.123 2.721 3.448 7.459.727 10.582-6.236 7.154-15.245 11.257-24.718 11.257z" fill="#423e4f"/></g><path d="m156.584 327.611c0-20.479 5.034-39.78 13.92-56.746-9.309 5.267-17.372 12.753-23.354 22.021l-12.036 18.65c-28.136 43.598 1.686 102.006 53.554 103.478.522.015 1.048.019 1.573.022-20.857-21.063-33.657-50.881-33.657-87.425z" fill="#ff995d"/></g></svg>