<?xml version="1.0" encoding="UTF-8"?>
<svg width="397px" height="433px" viewBox="0 0 397 433" version="1.1" xmlns="http://www.w3.org/2000/svg" xmlns:xlink="http://www.w3.org/1999/xlink">
    <title>Page 1</title>
    <defs>
        <polygon id="path-1" points="0.0152451763 0.0779469027 62.1410186 0.0779469027 62.1410186 103.258815 0.0152451763 103.258815"></polygon>
        <polygon id="path-3" points="0 0.0194607136 55.2762894 0.0194607136 55.2762894 88.8353959 0 88.8353959"></polygon>
        <polygon id="path-5" points="0.0930952708 0.09828 46.2531116 0.09828 46.2531116 47.0452509 0.0930952708 47.0452509"></polygon>
        <polygon id="path-7" points="0.366498273 0.0663368732 29.11734 0.0663368732 29.11734 68.7585398 0.366498273 68.7585398"></polygon>
        <polygon id="path-9" points="12.276 0.4824 0.2295 38.3274 7.5123 38.3274 19.5588 0.4824"></polygon>
        <path d="M6.2658,0.2862 L1.3923,0.2862 C1.0107,0.2862 0.7029,0.594 0.7029,0.9738 L0.7029,0.9738 L0.7029,5.8473 L0.7029,23.9625 L0.7029,28.836 C0.7029,29.2167 1.0107,29.5254 1.3923,29.5254 L1.3923,29.5254 L6.2658,29.5254 L13.9968,29.5254 C14.3775,29.5254 14.6862,29.2167 14.6862,28.836 L14.6862,28.836 L14.6862,24.651 C14.6862,24.2703 14.3775,23.9625 13.9968,23.9625 L13.9968,23.9625 L6.2658,23.9625 L6.2658,5.8473 L13.9968,5.8473 C14.3775,5.8473 14.6862,5.5395 14.6862,5.1588 L14.6862,5.1588 L14.6862,0.9738 C14.6862,0.594 14.3775,0.2862 13.9968,0.2862 L13.9968,0.2862 L6.2658,0.2862 Z" id="path-11"></path>
        <path d="M9.0225,0.2862 L1.2906,0.2862 C0.9108,0.2862 0.603,0.594 0.603,0.9738 L0.603,0.9738 L0.603,5.1588 C0.603,5.5395 0.9108,5.8473 1.2906,5.8473 L1.2906,5.8473 L9.0225,5.8473 L9.0225,23.9625 L1.2906,23.9625 C0.9108,23.9625 0.603,24.2703 0.603,24.651 L0.603,24.651 L0.603,28.836 C0.603,29.2167 0.9108,29.5254 1.2906,29.5254 L1.2906,29.5254 L9.0225,29.5254 L13.896,29.5254 C14.2767,29.5254 14.5845,29.2167 14.5845,28.836 L14.5845,28.836 L14.5845,24.651 L14.5845,5.1588 L14.5845,0.9738 C14.5845,0.594 14.2767,0.2862 13.896,0.2862 L13.896,0.2862 L9.0225,0.2862 Z" id="path-13"></path>
        <polygon id="path-15" points="65.475 0.8433 75.276 31.0086 75.276 71.4663 52.7841 78.7743 0.4617 78.7743 0.4617 0.8433"></polygon>
        <polygon id="path-17" points="65.475 0.8433 75.276 31.0086 75.276 71.4663 52.7841 78.7743 0.4617 78.7743 0.4617 0.8433"></polygon>
        <polygon id="path-19" points="65.475 0.8433 75.276 31.0086 75.276 71.4663 52.7841 78.7743 0.4617 78.7743 0.4617 0.8433"></polygon>
        <path d="M5.1093,0.0846 L5.30736923,0.0889416171 C7.1507654,0.169785375 8.83616897,1.37405172 9.4401,3.2319 L9.4401,3.2319 L9.49717171,3.42109036 C10.1480298,5.75809591 8.84527105,8.21406316 6.5169,8.9712 L6.5169,8.9712 L6.32770964,9.02820251 C3.99070409,9.67822978 1.53473684,8.37547105 0.7776,6.0471 L0.7776,6.0471 L0.720528302,5.85790782 C0.0696708449,3.52085796 1.37245263,1.06406053 3.7017,0.3078 C4.1697,0.1566 4.6431,0.0846 5.1093,0.0846 L5.1093,0.0846 Z" id="path-21"></path>
        <path d="M4.5648,0.8649 L4.76286609,0.869244717 C6.6062044,0.950145303 8.29076897,2.15522069 8.8947,4.0122 L8.8947,4.0122 L8.95170434,4.20139036 C9.6017759,6.53839591 8.29984737,8.99436316 5.9706,9.7515 L5.9706,9.7515 L5.78147886,9.8085717 C3.44530471,10.4594292 0.989360526,9.15664737 0.2331,6.8274 L0.2331,6.8274 L0.176026465,6.63820966 C-0.4748759,4.30120471 0.827052632,1.84526053 3.1563,1.089 C3.6234,0.9369 4.0977,0.8649 4.5648,0.8649 L4.5648,0.8649 Z" id="path-23"></path>
        <path d="M4.9887,0.8433 L5.18676609,0.847731547 C7.0301044,0.929385375 8.71466897,2.13365172 9.3186,3.9915 L9.3186,3.9915 L9.37567352,4.18068851 C10.0265753,6.51764855 8.72462368,8.97273947 6.3945,9.729 L6.3945,9.729 L6.20537884,9.78607353 C3.86920409,10.4369759 1.41323684,9.13504737 0.6561,6.8058 L0.6561,6.8058 L0.599095664,6.61667702 C-0.0509759003,4.28045796 1.25095263,1.82366053 3.5802,1.0674 C4.0482,0.9162 4.5225,0.8433 4.9887,0.8433 L4.9887,0.8433 Z" id="path-25"></path>
        <path d="M5.2245,0.5391 L5.42256609,0.543531547 C7.2659044,0.625185375 8.95046897,1.82945172 9.5544,3.6873 L9.5544,3.6873 L9.61147171,3.87642116 C10.2623298,6.21259591 8.95957105,8.66856316 6.6312,9.4257 L6.6312,9.4257 L6.44194229,9.48270434 C4.10415145,10.1327759 1.64906053,8.83084737 0.8928,6.5016 L0.8928,6.5016 L0.835660924,6.31240966 C0.184016967,3.97540471 1.48762895,1.51946053 3.816,0.7632 C4.2831,0.612 4.7574,0.5391 5.2245,0.5391 L5.2245,0.5391 Z" id="path-27"></path>
    </defs>
    <g id="Page-1" stroke="none" stroke-width="1" fill="none" fill-rule="evenodd">
        <g id="分组" transform="translate(0.000000, 164.000000)">
            <g transform="translate(48.000000, 0.134442)">
                <mask id="mask-2" fill="white">
                    <use xlink:href="#path-1"></use>
                </mask>
                <g id="Clip-2"></g>
                <path d="M31.6147327,2.58877168 C55.5552637,-8.73519292 69.8237947,20.9634265 57.7836531,37.4992142 C43.0907681,57.6779044 35.5643257,80.8963115 31.3730336,87.8917805 C27.8373876,93.7930195 18.1522195,108.180064 6.48970619,101.548842 C-4.24339115,95.446046 1.60644956,71.494046 1.60644956,71.494046 C1.60644956,71.494046 2.08050265,16.5584708 31.6147327,2.58877168 Z" id="Fill-1" fill="#389E0D" mask="url(#mask-2)"></path>
            </g>
            <path d="M93.171377,97.9054938 C83.9657841,108.693388 70.6816779,130.394697 62.3594124,122.794131 C57.3155894,118.188042 64.0585274,96.3741664 82.5158018,84.505423 C98.2158372,74.4097062 102.377182,87.1176 93.171377,97.9054938 Z" id="Fill-3" fill="#BAE637"></path>
            <path d="M5.57921416,66.2920779 C14.2890903,62.4180956 28.7169133,71.9569274 35.3997451,90.3152283 C42.0823646,108.673317 45.937869,121.872467 39.4009487,124.167335 C28.6759221,127.932573 18.3554973,111.574981 7.60540885,97.0717593 C-0.533564602,86.0910159 -3.50531681,70.3329982 5.57921416,66.2920779 Z" id="Fill-5" fill="#389E0D"></path>
            <g transform="translate(0.000000, 20.736212)">
                <mask id="mask-4" fill="white">
                    <use xlink:href="#path-3"></use>
                </mask>
                <g id="Clip-8"></g>
                <path d="M5.08213805,2.30665487 C8.58273982,-0.0485309735 12.986846,-0.586513274 17.0050407,0.700566372 C22.6129699,2.49674336 31.1232,7.84492035 39.5459257,23.1957876 C50.5423858,43.2379115 56.2669168,65.2095929 55.1353062,79.1272566 C54.395554,88.2289912 43.1824566,92.152885 36.9095363,85.5165664 C34.0286867,82.4685664 30.9804743,77.7705133 27.9981027,70.6431504 C15.9957664,41.9614513 4.77438584,23.988 3.43612035,22.1833274 C-0.134357522,17.3676106 -2.68727788,7.53419469 5.08213805,2.30665487" id="Fill-7" fill="#BAE637" mask="url(#mask-4)"></path>
            </g>
            <path d="M28.6339327,100.436687 C28.6339327,100.436687 44.6829239,117.264935 44.6829239,149.629465" id="Stroke-9" stroke="#253369" stroke-width="0.64" stroke-linecap="round" stroke-linejoin="round"></path>
            <path d="M56.1864637,146.465034 C56.1864637,146.465034 60.1001628,123.218591 74.0305699,104.561034" id="Stroke-11" stroke="#253369" stroke-width="0.64" stroke-linecap="round" stroke-linejoin="round"></path>
            <path d="M83.6196531,29.7777133 C83.6196531,29.7777133 47.0281487,67.9632 56.4711929,146.465076" id="Stroke-13" stroke="#253369" stroke-width="0.64" stroke-linecap="round" stroke-linejoin="round"></path>
            <path d="M32.4106832,65.4385062 C32.4106832,65.4385062 51.8759575,97.5598513 52.193692,149.629444" id="Stroke-15" stroke="#253369" stroke-width="0.64" stroke-linecap="round" stroke-linejoin="round"></path>
            <path d="M13.1318867,34.4830513 C13.2506124,35.8992637 12.1988602,37.1434407 10.7828602,37.2621664 C9.36664779,37.3811044 8.1224708,36.3293522 8.00353274,34.9131398 C7.88480708,33.4971398 8.93655929,32.2529628 10.3527717,32.1340248 C11.7687717,32.0152991 13.0129487,33.0670513 13.1318867,34.4830513" id="Fill-17" fill="#FFFFFF"></path>
            <path d="M34.9877735,45.4691257 C35.1067115,46.8851257 34.0549593,48.129515 32.6387469,48.2482407 C31.2225345,48.3671788 29.9783575,47.3154265 29.8594195,45.8992142 C29.7406938,44.4832142 30.792446,43.2390372 32.2086584,43.1200991 C33.6246584,43.0013735 34.8690478,44.0531257 34.9877735,45.4691257" id="Fill-19" fill="#FFFFFF"></path>
            <path d="M31.3246726,74.7201558 C31.4608142,76.3419611 30.256354,77.7668814 28.6345487,77.9028106 C27.0127434,78.0389522 25.587823,76.834492 25.4518938,75.2126867 C25.3157522,73.5910938 26.5202124,72.1661735 28.1420177,72.0300319 C29.7636106,71.8938903 31.188531,73.0983504 31.3246726,74.7201558" id="Fill-21" fill="#FFFFFF"></path>
            <path d="M98.4551788,31.0057062 C98.4551788,33.3073699 96.5895504,35.1732106 94.2878867,35.1732106 C91.986223,35.1732106 90.1205947,33.3073699 90.1205947,31.0057062 C90.1205947,28.7042549 91.986223,26.8384142 94.2878867,26.8384142 C96.5895504,26.8384142 98.4551788,28.7042549 98.4551788,31.0057062" id="Fill-23" fill="#FFFFFF"></path>
            <path d="M64.9071929,43.7315469 C64.9071929,46.0329982 63.0413522,47.8988389 60.7399009,47.8988389 C58.4382372,47.8988389 56.5726088,46.0329982 56.5726088,43.7315469 C56.5726088,41.4300956 58.4382372,39.5642549 60.7399009,39.5642549 C63.0413522,39.5642549 64.9071929,41.4300956 64.9071929,43.7315469" id="Fill-25" fill="#FFFFFF"></path>
            <path d="M75.7724389,72.0195611 C75.7724389,72.9814726 74.9925451,73.7613664 74.0306336,73.7613664 C73.0687221,73.7613664 72.2888283,72.9814726 72.2888283,72.0195611 C72.2888283,71.0574372 73.0687221,70.2775434 74.0306336,70.2775434 C74.9925451,70.2775434 75.7724389,71.0574372 75.7724389,72.0195611" id="Fill-27" fill="#FFFFFF"></path>
            <line x1="34.9236743" y1="171.135717" x2="72.8961345" y2="171.135717" id="Fill-29" fill="#A3B5D6"></line>
            <path d="M88.3210407,94.2952354 C88.3210407,95.7163327 87.1688283,96.8683327 85.7479434,96.8683327 C84.3266336,96.8683327 83.174846,95.7163327 83.174846,94.2952354 C83.174846,92.8741381 84.3266336,91.7221381 85.7479434,91.7221381 C87.1688283,91.7221381 88.3210407,92.8741381 88.3210407,94.2952354" id="Fill-31" fill="#FFFFFF"></path>
            <rect id="矩形" fill="#253369" x="23" y="142" width="60" height="104" rx="5"></rect>
        </g>
        <g id="资源-19" transform="translate(164.000000, 69.000000)">
            <path d="M33.2938771,16.4389306 C33.2938771,7.40233728 25.841088,0 16.6472813,0 C7.45347456,0 0,7.40233728 0,16.4389306 C0,20.015424 1.93156992,24.6351456 5.03318592,28.0411373 C8.1087552,31.4161286 8.98474752,37.0979482 8.98474752,41.6287123 L8.98474752,43.4051654 L24.309815,43.4051654 L24.309815,41.6435386 C24.309815,37.1127744 25.1858074,31.4417376 28.2456115,28.0559635 C31.3575091,24.614928 33.2938771,19.5847891 33.2938771,16.4389306 Z" id="路径" fill="#FFE58F" fill-rule="nonzero"></path>
            <path d="M30.5541734,16.3944518 C30.5541734,8.84654784 24.3296928,2.661984 16.6472813,2.661984 C8.96486976,2.661984 2.74176,8.84587392 2.74176,16.3944518 C2.74176,19.3846349 4.35460032,23.242153 6.94624896,26.0874432 C9.51527808,28.9071245 11.4228576,33.653543 11.4228576,37.4382778 L11.4228576,38.9209018 L21.8723904,38.9209018 L21.8723904,37.4510822 C21.8723904,33.6656736 23.7799699,28.928016 26.3366611,26.0995738 C28.936535,23.225305 30.5541734,19.0234138 30.5541734,16.3951258 L30.5541734,16.3944518 Z" id="路径" fill="#FFC53D" fill-rule="nonzero"></path>
            <path d="M20.8723334,51.6943814 L12.4222291,51.6943814 C12.1268045,51.6943814 11.8574266,51.5056838 11.6970336,51.1956806 L10.5475507,48.2715418 L22.7483827,48.2715418 L21.5988998,51.1956806 C21.4378214,51.5056838 21.169129,51.6943814 20.8737043,51.6943814 L20.8723334,51.6943814 Z" id="路径" fill="#253369" fill-rule="nonzero"></path>
            <rect id="矩形" fill="#597EF7" fill-rule="nonzero" x="8.6810976" y="36.6470957" width="15.9323674" height="12.8833286" rx="2.2353408"></rect>
            <line x1="8.7016608" y1="40.3987208" x2="17.6774976" y2="40.3987208" id="路径" stroke="#FFFFFF" stroke-width="0.7448112" stroke-linecap="round" stroke-linejoin="round"></line>
            <line x1="8.7016608" y1="46.1263669" x2="17.6774976" y2="46.1263669" id="路径" stroke="#FFFFFF" stroke-width="0.7448112" stroke-linecap="round" stroke-linejoin="round"></line>
            <line x1="15.5862202" y1="43.2622069" x2="24.562057" y2="43.2622069" id="路径" stroke="#FFFFFF" stroke-width="0.7448112" stroke-linecap="round" stroke-linejoin="round"></line>
            <path d="M17.7827135,9.83199656 L11.507559,19.2298562 C11.1699411,19.7393619 11.5330932,20.3658859 12.1413729,20.3658859 L14.952397,20.3658859 L11.4962105,26.7845372 C11.2385995,27.3035611 11.9030543,27.785072 12.3104656,27.374668 L21.7098627,18.0904672 C22.189337,17.6072767 21.8488819,16.7819895 21.1702415,16.7819895 L16.9196599,16.7819895 L18.6979702,10.2418407 C18.8369893,9.68362404 18.0987693,9.35608469 17.7827135,9.83199656 Z" id="路径" fill="#FFFFFF" fill-rule="nonzero"></path>
        </g>
        <rect id="矩形备份-2" fill="#E4EBF7" x="120" y="406" width="200" height="24" rx="12"></rect>
        <g id="2.通用组件/彩色版/凳子" transform="translate(129.000000, 311.000000)">
            <g id="编组" transform="translate(0.981413, 0.280885)">
                <path d="M59.3470328,19.7159778 C59.3470328,24.2257307 55.6912905,27.881473 51.1819618,27.881473 C46.6726332,27.881473 43.0164667,24.2257307 43.0164667,19.7159778 C43.0164667,15.2066491 46.6726332,11.5509068 51.1819618,11.5509068 C55.6912905,11.5509068 59.3470328,15.2066491 59.3470328,19.7159778" id="Fill-1" fill="#132E55"></path>
                <polygon id="Fill-3" fill="#132E55" points="49.6497065 93.2029737 52.8103517 93.2029737 52.8103517 22.1546383 49.6497065 22.1546383"></polygon>
                <polygon id="Fill-5" fill="#132E55" points="49.6500459 93.202804 12.8380743 99.3344558 10.4622873 97.6187982 49.6500459 86.0762914"></polygon>
                <polygon id="Fill-6" fill="#132E55" points="52.8105638 93.202804 89.6225354 99.3344558 91.9978982 97.6187982 52.8105638 86.0762914"></polygon>
                <polygon id="Fill-7" fill="#132E55" points="48.7227253 101.446106 53.7377572 101.446106 53.7377572 91.1517362 48.7227253 91.1517362"></polygon>
                <path d="M16.2871656,101.582926 C16.2871656,103.933683 14.381445,105.838979 12.0311128,105.838979 C9.68035638,105.838979 7.77463578,103.933683 7.77463578,101.582926 C7.77463578,99.2321697 9.68035638,97.3268733 12.0311128,97.3268733 C14.381445,97.3268733 16.2871656,99.2321697 16.2871656,101.582926" id="Fill-8" fill="#132236"></path>
                <path d="M55.4865485,101.582926 C55.4865485,103.933683 53.5808279,105.838979 51.2300715,105.838979 C48.8797394,105.838979 46.9740188,103.933683 46.9740188,101.582926 C46.9740188,99.2321697 48.8797394,97.3268733 51.2300715,97.3268733 C53.5808279,97.3268733 55.4865485,99.2321697 55.4865485,101.582926" id="Fill-9" fill="#132236"></path>
                <path d="M95.058421,101.582926 C95.058421,103.933683 93.1527004,105.838979 90.801944,105.838979 C88.4516118,105.838979 86.5458912,103.933683 86.5458912,101.582926 C86.5458912,99.2321697 88.4516118,97.3268733 90.801944,97.3268733 C93.1527004,97.3268733 95.058421,99.2321697 95.058421,101.582926" id="Fill-10" fill="#132236"></path>
                <path d="M102.363839,18.2170259 L8.48495368e-05,18.2170259 C8.48495368e-05,8.15599203 8.15582233,0.00025454861 18.2168562,0.00025454861 L84.1470675,0.00025454861 C94.2076771,0.00025454861 102.363839,8.15599203 102.363839,18.2170259" id="Fill-11" fill="#A3B5D6"></path>
            </g>
        </g>
        <g id="1.人物组件/6.产品经理/坐姿/专注工作" transform="translate(209.500000, 287.000000) scale(-1, 1) translate(-209.500000, -287.000000) translate(130.000000, 141.000000)">
            <g id="分组" transform="translate(0.210000, 0.630000)">
                <path d="M78.144696,118.6164 C78.144696,118.6164 78.939441,131.82183 91.023156,130.889115 C103.345011,129.938445 102.020121,116.60922 102.020121,116.60922 C102.020121,116.60922 102.619251,108.324405 101.760246,97.182855 C101.088351,88.47657 100.056411,77.10633 99.095346,71.577135 C98.059626,65.60946 92.560671,61.671645 86.901066,62.108235 C78.298731,62.771625 75.381516,69.702255 75.571461,75.72474 C75.756681,81.58185 76.034511,91.21896 76.382271,97.66953 C77.049441,110.0736 78.144696,118.6164 78.144696,118.6164" id="Fill-1" fill="#ADC6FF"></path>
                <path d="M51.16797,134.72298 C49.713615,140.15295 37.619505,138.309255 37.619505,138.309255 L31.69152,143.13537 C30.75219,143.784585 30.34962,143.151435 29.838375,143.26767 C28.46151,143.58141 28.131705,142.13556 28.131705,142.13556 C27.60534,142.017435 26.923995,142.55514 26.419365,141.293565 C26.419365,141.293565 25.438455,141.44382 25.103925,140.28903 C24.97824,139.86 26.871075,134.04447 28.00035,130.64247 C28.49742,129.148425 29.79018,128.06262 31.346595,127.82826 L45.82116,125.64909 C45.82116,125.64909 53.12412,127.41813 51.16797,134.72298" id="Fill-3" fill="#CE998A"></path>
                <polyline id="Stroke-5" stroke="#965C56" stroke-width="0.651105" stroke-linecap="round" stroke-linejoin="round" points="29.9562165 142.629039 34.2777015 136.679319 38.6360415 134.818614"></polyline>
                <polyline id="Stroke-7" stroke="#965C56" stroke-width="0.651105" stroke-linecap="round" stroke-linejoin="round" points="28.234143 141.427471 31.758048 135.265127 35.761068 133.009411"></polyline>
                <polyline id="Stroke-9" stroke="#965C56" stroke-width="0.651105" stroke-linecap="round" stroke-linejoin="round" points="32.9868315 131.323153 30.2860215 133.459798 27.0786915 140.056843"></polyline>
                <path d="M89.5530195,109.399909 C89.5530195,109.399909 101.731234,106.838959 104.204299,116.945735 C106.753909,127.369085 95.1861645,130.366625 95.1861645,130.366625 C95.1861645,130.366625 86.9930145,132.276469 76.9060845,134.672989 C70.7484645,136.13585 63.9161145,137.61572 58.8017745,137.9786 C53.2640745,138.371719 52.0110045,135.539555 50.7749445,130.485694 C49.3064145,124.483999 49.3101945,121.85501 54.4368195,119.797745 C59.3243595,117.836869 66.1954545,116.070664 71.4591045,114.460384 C81.4940595,111.39197 89.5530195,109.399909 89.5530195,109.399909" id="Fill-11" fill="#ADC6FF"></path>
                <polygon id="Fill-13" fill="#ADC6FF" points="48.2230665 137.16023 45.3644415 125.473415 53.0539065 122.69984 56.3254965 136.0697"></polygon>
                <path d="M39.7983915,158.543123 C63.9856665,152.259818 89.0527365,146.010533 109.107526,141.496268 C109.107526,141.496268 124.242646,140.670338 125.043061,154.484348 C125.826466,168.024307 109.476076,172.046228 109.476076,172.046228 L43.7947965,182.255063 C43.7947965,182.255063 33.0794415,183.799193 31.2886665,171.910148 C29.6566515,161.065328 39.7983915,158.543123 39.7983915,158.543123" id="Fill-15" fill="#597EF7"></path>
                <path d="M44.0601525,222.539184 L44.0601525,222.539184 C48.3542325,221.678289 52.3289025,225.043434 52.1767575,229.420674 C52.0019325,234.456579 51.8006475,241.260579 51.6834675,248.589999 C51.5625075,256.133934 51.4472175,262.385109 50.9076225,263.178909 C48.5290575,266.677299 43.7766525,267.978564 38.8928925,271.443879 C35.0278425,274.187214 34.3606725,275.490369 29.4353325,276.412689 C22.4536725,277.720569 25.7082525,274.758939 33.4600875,265.391154 C40.3670925,257.045859 39.9021525,253.131669 39.9021525,253.131669 L38.6169525,229.562424 C38.4336225,226.194444 40.7526525,223.202574 44.0601525,222.539184" id="Fill-17" fill="#CE998A"></path>
                <path d="M34.1616555,263.175601 C29.1172455,268.782286 23.3366805,273.213392 23.4765405,275.875456 C23.6173455,278.538466 25.7161905,280.942546 34.4007405,277.860902 C40.3438455,275.751662 38.6428455,274.475911 44.3156805,270.785686 C47.1487905,268.941991 48.1816755,269.140442 50.7936555,266.995292 C52.2905355,265.070326 51.6167505,255.719551 51.6167505,255.719551 L41.6753505,266.613512 C41.6753505,266.613512 44.2599255,261.539806 42.1355655,260.439826 C40.0121505,259.339847 38.0569455,258.591407 36.8038755,259.493881 C35.5517505,260.395411 34.1616555,263.175601 34.1616555,263.175601" id="Fill-19" fill="#7D4556"></path>
                <path d="M29.240001,172.095178 C32.500251,211.673668 36.211266,250.399768 36.211266,250.399768 L52.967061,250.388429 L55.584711,170.671063 C55.584711,170.671063 54.115236,161.523463 41.172516,159.858373 C29.268351,158.326528 29.240001,172.095178 29.240001,172.095178" id="Fill-21" fill="#597EF7"></path>
                <path d="M149.415651,159.392111 C147.907431,143.427281 147.507696,135.219011 145.717866,132.220526 C107.241246,133.320506 97.656111,132.813986 97.656111,132.813986 C97.656111,132.813986 97.263936,138.461306 95.491116,155.844581 C95.491116,155.844581 107.337636,177.431216 122.623956,177.431216 C136.405836,177.431216 149.415651,159.392111 149.415651,159.392111" id="Fill-23" fill="#597EF7"></path>
                <path d="M145.717771,132.22062 L144.990121,124.98003 L97.8752565,125.54514 L97.6560165,132.79707 C97.6560165,132.79707 122.590787,133.75719 145.717771,132.22062" id="Fill-25" fill="#597EF7"></path>
                <g transform="translate(83.160000, 0.846720)">
                    <mask id="mask-6" fill="white">
                        <use xlink:href="#path-5"></use>
                    </mask>
                    <g id="Clip-28"></g>
                    <path d="M41.376447,35.524251 C41.376447,35.524251 47.920572,31.513671 45.300087,24.389316 C47.953647,18.020961 44.223732,14.360031 44.223732,14.360031 C44.223732,14.360031 43.683192,6.203736 38.252277,6.015681 C34.426917,-2.185029 25.072362,1.576071 25.072362,1.576071 C25.072362,1.576071 18.734247,-3.090339 10.365327,4.159701 C4.006422,4.708746 3.823092,1.546776 1.886787,3.849741 C-0.050463,6.151761 -0.706293,11.348316 2.125872,13.238316 C-2.482893,15.504426 2.186352,22.775256 2.186352,22.775256 C2.186352,22.775256 0.863352,27.186516 6.459642,30.172716 C12.056877,33.159861 14.642397,43.358301 23.835357,46.145106 C32.681502,48.827016 41.752557,45.581886 41.376447,35.524251" id="Fill-27" fill="#7D4556" mask="url(#mask-6)"></path>
                </g>
                <path d="M121.867578,51.854607 L119.208348,37.897902 L100.676898,41.181777 L101.133333,53.495127 C101.336508,58.992192 106.032213,63.239967 111.522663,62.892207 C111.627558,62.885592 111.731508,62.878977 111.837348,62.872362 C117.451593,62.518932 122.551758,57.438612 121.867578,51.854607" id="Fill-29" fill="#CE998A"></path>
                <path d="M114.214401,16.5901365 C114.214401,16.5901365 113.210811,21.5986365 117.083421,22.7411415 C116.532486,29.1879315 119.310786,28.5784065 119.310786,28.5784065 C119.310786,28.5784065 123.674796,22.7959515 126.824481,27.7241265 C129.817296,32.4056565 124.895736,39.4648065 120.205701,38.4678315 C112.638141,51.0580665 97.088166,51.9492015 91.796166,43.8751215 C88.581276,38.9686815 89.598096,31.7356515 89.143551,28.3534965 C88.024671,20.0422215 89.517771,17.4935565 89.517771,17.4935565 C89.517771,17.4935565 92.714706,18.1163115 96.149781,15.4438515 C99.937341,18.1484415 105.244461,15.3143865 105.244461,15.3143865 C105.244461,15.3143865 108.916731,19.8371565 114.214401,16.5901365" id="Fill-31" fill="#CE998A"></path>
                <path d="M124.997891,30.150981 C124.997891,30.150981 124.871261,28.685286 122.937791,29.098251 C121.005266,29.511216 120.265331,32.130756 120.891866,32.473791 C122.055161,33.111666 123.158921,34.493256 121.177256,35.771841" id="Stroke-33" stroke="#965C56" stroke-width="0.70875" stroke-linecap="round" stroke-linejoin="round"></path>
                <path d="M121.626698,31.743306 C121.626698,31.743306 123.925883,31.298211 123.920223,32.652396" id="Stroke-35" stroke="#965C56" stroke-width="0.70875" stroke-linecap="round" stroke-linejoin="round"></path>
                <path d="M101.926566,28.2618315 C102.221406,31.6638315 105.216111,34.1832015 108.619056,33.8902515 C112.021056,33.5963565 114.540426,30.5997615 114.246531,27.1977615 C113.953581,23.7957615 110.956986,21.2754465 107.554986,21.5693415 C104.152041,21.8632365 101.632671,24.8598315 101.926566,28.2618315" id="Fill-37" fill="#FFFFFF"></path>
                <path d="M101.926566,28.2618315 C102.221406,31.6638315 105.216111,34.1832015 108.619056,33.8902515 C112.021056,33.5963565 114.540426,30.5997615 114.246531,27.1977615 C113.953581,23.7957615 110.956986,21.2754465 107.554986,21.5693415 C104.152041,21.8632365 101.632671,24.8598315 101.926566,28.2618315 Z" id="Stroke-39" stroke="#7D4556" stroke-width="0.87129"></path>
                <path d="M86.9366925,28.9756845 C87.2315325,32.3776845 90.2262375,34.8970545 93.6291825,34.6041045 C97.0311825,34.3102095 99.5514975,31.3136145 99.2566575,27.9116145 C98.9637075,24.5096145 95.9671125,21.9892995 92.5651125,22.2831945 C89.1621675,22.5770895 86.6427975,25.5736845 86.9366925,28.9756845" id="Fill-41" fill="#FFFFFF"></path>
                <path d="M86.9366925,28.9756845 C87.2315325,32.3776845 90.2262375,34.8970545 93.6291825,34.6041045 C97.0311825,34.3102095 99.5514975,31.3136145 99.2566575,27.9116145 C98.9637075,24.5096145 95.9671125,21.9892995 92.5651125,22.2831945 C89.1621675,22.5770895 86.6427975,25.5736845 86.9366925,28.9756845 Z" id="Stroke-43" stroke="#7D4556" stroke-width="0.87129"></path>
                <path d="M100.231331,27.5600745 C100.231331,27.5600745 97.1818155,32.9380695 98.3517255,34.2856395 C99.8089155,35.9639595 102.506891,34.9102845 102.506891,34.9102845" id="Stroke-45" stroke="#965C56" stroke-width="0.70875" stroke-linecap="round" stroke-linejoin="round"></path>
                <path d="M106.937712,36.8250435 C106.937712,36.8250435 101.294172,37.9684935 97.166412,37.6689285 C97.166412,37.6689285 98.658567,41.6417085 102.688047,40.8016035 C106.265817,40.0550535 106.937712,36.8250435 106.937712,36.8250435" id="Fill-47" fill="#FFFFFF"></path>
                <path d="M106.937712,36.8250435 C106.937712,36.8250435 101.294172,37.9684935 97.166412,37.6689285 C97.166412,37.6689285 98.658567,41.6417085 102.688047,40.8016035 C106.265817,40.0550535 106.937712,36.8250435 106.937712,36.8250435 Z" id="Stroke-49" stroke="#7D4556" stroke-width="0.74466" stroke-linecap="round" stroke-linejoin="round"></path>
                <path d="M97.107444,20.571327 C95.499999,21.504042 93.167739,22.113567 90.454644,21.613662" id="Stroke-51" stroke="#7D4556" stroke-width="0.74466" stroke-linecap="round" stroke-linejoin="round"></path>
                <path d="M102.506135,26.351136 C102.506135,26.351136 100.26554,26.052516 98.8414245,26.667711" id="Stroke-53" stroke="#7D4556" stroke-width="0.87129"></path>
                <path d="M91.2528855,29.8482975 C91.2528855,29.8482975 91.0553805,27.5680125 93.0096405,27.3998025 C94.9648455,27.2306475 95.3097705,29.3342175 95.3097705,29.3342175" id="Stroke-55" stroke="#7D4556" stroke-width="0.87129" stroke-linecap="round" stroke-linejoin="round"></path>
                <path d="M106.072092,28.568295 C106.072092,28.568295 105.875532,26.28801 107.828847,26.1198 C109.784052,25.950645 110.129922,28.054215 110.129922,28.054215" id="Stroke-57" stroke="#7D4556" stroke-width="0.87129" stroke-linecap="round" stroke-linejoin="round"></path>
                <g transform="translate(113.400000, 26.361720)">
                    <line x1="0.84672" y1="0.836136" x2="6.93441" y2="0.309771" id="Fill-59" fill="#FFFFFF"></line>
                    <line x1="0.84672" y1="0.836136" x2="6.93441" y2="0.309771" id="Stroke-61" stroke="#7D4556" stroke-width="0.87129"></line>
                </g>
                <path d="M111.466152,20.395935 C111.466152,20.395935 106.915032,20.99223 103.916547,19.78263" id="Stroke-62" stroke="#7D4556" stroke-width="0.74466" stroke-linecap="round" stroke-linejoin="round"></path>
                <path d="M103.009063,44.998254 C103.009063,44.998254 103.147033,48.022254 104.180863,48.588309" id="Stroke-64" stroke="#965C56" stroke-width="0.70875" stroke-linecap="round" stroke-linejoin="round"></path>
                <path d="M101.76053,46.2136185 C101.76053,46.2136185 101.77565,47.8116135 102.10451,48.7679535" id="Stroke-66" stroke="#965C56" stroke-width="0.70875" stroke-linecap="round" stroke-linejoin="round"></path>
                <path d="M104.733878,46.4489235 C104.733878,46.4489235 105.247957,48.1272435 105.890558,48.4409835" id="Stroke-68" stroke="#965C56" stroke-width="0.70875" stroke-linecap="round" stroke-linejoin="round"></path>
                <line x1="100.630026" y1="45.942309" x2="100.321011" y2="48.060999" id="Stroke-70" stroke="#965C56" stroke-width="0.70875" stroke-linecap="round" stroke-linejoin="round"></line>
                <path d="M100.251648,48.682242 C100.251648,48.682242 106.983828,49.700007 113.039388,45.731007" id="Stroke-72" stroke="#965C56" stroke-width="0.70875" stroke-linecap="round" stroke-linejoin="round"></path>
                <path d="M105.912387,34.4523375 C105.912387,34.4523375 109.784997,35.5938975 109.451412,37.4281425" id="Stroke-74" stroke="#965C56" stroke-width="0.70875" stroke-linecap="round" stroke-linejoin="round"></path>
                <path d="M122.835636,52.5158235 L124.814466,56.1890385 C124.814466,56.1890385 138.544371,57.8361735 145.248201,61.8741585 C151.310376,65.5256385 150.546816,104.073133 149.614101,117.046093 C152.880021,132.277603 140.693301,131.049104 140.693301,131.049104 L97.203456,134.636324 C97.203456,134.636324 90.837936,131.021699 94.002741,120.288388 C93.190986,111.560368 79.018821,69.7006485 84.493206,64.2262635 C88.750431,59.9690385 99.026361,59.1364935 99.026361,59.1364935 L99.715266,54.8688735 C99.715266,54.8688735 106.311366,54.1157085 122.835636,52.5158235" id="Fill-76" fill="#ADC6FF"></path>
                <path d="M95.1362685,121.165821 C95.1362685,121.165821 88.1328735,96.795216 86.6218185,81.254691" id="Stroke-78" stroke="#597EF7" stroke-width="0.724815" stroke-linecap="round" stroke-linejoin="round"></path>
                <path d="M100.845958,60.371136 C100.845958,60.371136 110.530319,61.464501 121.523503,58.568076" id="Stroke-80" stroke="#597EF7" stroke-width="0.724815" stroke-linecap="round" stroke-linejoin="round"></path>
                <path d="M78.344091,230.277316 L78.344091,230.277316 C83.010501,229.506196 87.177006,233.284306 86.852871,238.003636 C86.479596,243.432661 86.012766,250.769641 85.617756,258.677401 C85.210461,266.815742 84.857031,273.559261 84.244671,274.396531 C81.550476,278.084866 76.370931,279.316201 70.972146,282.877906 C66.700746,285.696842 65.932461,287.079376 60.581871,287.893966 C52.997301,289.049701 56.619486,285.972781 65.330496,276.144781 C73.090836,267.389356 72.733626,263.147251 72.733626,263.147251 L72.211041,237.659656 C72.137331,234.016681 74.748366,230.871721 78.344091,230.277316" id="Fill-82" fill="#CE998A"></path>
                <path d="M66.167955,273.77869 C60.5178,279.64525 54.115425,284.216215 54.170235,287.095631 C54.223155,289.975046 56.40138,292.646561 65.888235,289.638625 C72.38133,287.579471 70.592445,286.141181 76.850235,282.36496 C79.97535,280.478741 81.08289,280.731056 83.981205,278.511251 C85.66803,276.48895 85.28436,266.370835 85.28436,266.370835 L74.153205,277.764701 C74.153205,277.764701 77.129955,272.382925 74.877075,271.118516 C72.62514,269.853161 70.541415,268.973365 69.156045,269.900411 C67.770675,270.827455 66.167955,273.77869 66.167955,273.77869" id="Fill-84" fill="#7D4556"></path>
                <path d="M64.6747605,174.724357 C66.7074555,217.567822 69.2599005,259.506922 69.2599005,259.506922 L87.3462555,260.124952 L93.1636755,174.175312 C93.1636755,174.175312 92.0939355,161.331817 78.0134355,161.964022 C65.3088555,162.533857 64.6747605,174.724357 64.6747605,174.724357" id="Fill-86" fill="#597EF7"></path>
                <path d="M72.2661345,160.693376 C91.8210195,153.442391 116.79359,148.170236 134.883725,144.492296 C134.883725,144.492296 148.45487,146.301971 149.372465,159.639701 C150.27116,172.711885 135.526325,176.039231 135.526325,176.039231 L76.2152895,183.67483 C76.2152895,183.67483 66.5365995,184.80316 64.7505495,173.287391 C63.1204245,162.783715 72.2661345,160.693376 72.2661345,160.693376" id="Fill-88" fill="#597EF7"></path>
                <line x1="97.974009" y1="134.558267" x2="146.222874" y2="134.558267" id="Stroke-90" stroke="#1D39C4" stroke-width="0.70875" stroke-linecap="round" stroke-linejoin="round"></line>
                <line x1="97.264314" y1="140.057032" x2="145.689894" y2="140.057032" id="Stroke-92" stroke="#1D39C4" stroke-width="0.70875" stroke-linecap="round" stroke-linejoin="round"></line>
                <line x1="112.43147" y1="134.469626" x2="112.16498" y2="140.057411" id="Stroke-94" stroke="#1D39C4" stroke-width="0.70875" stroke-linecap="round" stroke-linejoin="round"></line>
                <polygon id="Fill-96" fill="#BAC9E5" points="69.500403 160.517606 124.014618 148.69471 68.567688 135.284215 23.924943 149.587735"></polygon>
                <polygon id="Fill-98" fill="#4E5C93" points="67.2098175 156.800353 106.801538 148.214083 67.4696925 138.346394 34.1093025 148.862353"></polygon>
                <polygon id="Fill-100" fill="#253368" points="124.142382 151.535947 124.027092 148.713233 68.365647 160.327282 69.486417 163.284187"></polygon>
                <line x1="92.304009" y1="151.10361" x2="60.211809" y2="141.357825" id="Stroke-102" stroke="#BAC9E5" stroke-width="0.525" stroke-linecap="round" stroke-linejoin="round"></line>
                <line x1="100.135319" y1="149.680534" x2="64.2876885" y2="139.447129" id="Stroke-104" stroke="#BAC9E5" stroke-width="0.525" stroke-linecap="round" stroke-linejoin="round"></line>
                <line x1="86.872149" y1="152.848174" x2="59.898069" y2="144.245839" id="Stroke-106" stroke="#BAC9E5" stroke-width="0.525" stroke-linecap="round" stroke-linejoin="round"></line>
                <line x1="79.679376" y1="153.979623" x2="52.705296" y2="145.377288" id="Stroke-108" stroke="#BAC9E5" stroke-width="0.525" stroke-linecap="round" stroke-linejoin="round"></line>
                <line x1="73.0635255" y1="155.494931" x2="46.0894455" y2="146.892595" id="Stroke-110" stroke="#BAC9E5" stroke-width="0.525" stroke-linecap="round" stroke-linejoin="round"></line>
                <line x1="100.211958" y1="147.084997" x2="66.263778" y2="153.238837" id="Stroke-112" stroke="#BAC9E5" stroke-width="0.525" stroke-linecap="round" stroke-linejoin="round"></line>
                <line x1="92.477511" y1="144.840622" x2="58.528386" y2="150.994462" id="Stroke-114" stroke="#BAC9E5" stroke-width="0.525" stroke-linecap="round" stroke-linejoin="round"></line>
                <line x1="82.9758195" y1="143.589254" x2="49.0276395" y2="149.743094" id="Stroke-116" stroke="#BAC9E5" stroke-width="0.525" stroke-linecap="round" stroke-linejoin="round"></line>
                <line x1="76.350708" y1="139.218156" x2="42.401583" y2="145.371996" id="Stroke-118" stroke="#BAC9E5" stroke-width="0.525" stroke-linecap="round" stroke-linejoin="round"></line>
                <polygon id="Fill-120" fill="#253368" points="69.442191 163.288912 66.982356 163.643287 23.816646 152.720978 2.615571 81.9952875 48.812841 88.5271275"></polygon>
                <path d="M66.8951325,163.652549 L21.3754275,152.154734 C20.9596275,152.050784 20.6288775,151.734209 20.5050825,151.323134 L0.0533925,83.3587335 C-0.2045925,82.5044535 0.5117175,81.6719085 1.3943475,81.7975935 L45.2196675,88.0553835 C45.6987825,88.1243685 46.0937925,88.4711835 46.2232575,88.9389585 L66.8951325,163.652549 Z" id="Fill-122" fill="#4E5C93"></path>
                <g transform="translate(127.575000, 60.381720)">
                    <mask id="mask-8" fill="white">
                        <use xlink:href="#path-7"></use>
                    </mask>
                    <g id="Clip-125"></g>
                    <path d="M5.25609,57.0506895 C5.25609,57.0506895 6.74541,70.1956395 18.76392,68.6288295 C31.01868,67.0308345 28.9926,53.7885495 28.9926,53.7885495 C28.9926,53.7885495 29.15514,45.4848345 27.710235,34.4037645 C26.58096,25.7447295 24.95178,14.4453645 23.701545,8.9728695 C22.352085,3.0685095 16.653735,-0.5735205 11.02437,0.1597995 C2.47023,1.2758445 -0.07938,8.3501145 0.428085,14.3546445 C0.921375,20.1937995 1.70667,29.8025595 2.39274,36.2266695 C3.712905,48.5778195 5.25609,57.0506895 5.25609,57.0506895" id="Fill-124" fill="#ADC6FF" mask="url(#mask-8)"></path>
                </g>
                <path d="M98.068131,134.324757 C96.485256,140.234787 83.322351,138.228552 83.322351,138.228552 L76.870836,143.480862 C75.849291,144.186777 75.409866,143.498817 74.854206,143.624502 C73.355436,143.966592 72.997281,142.392222 72.997281,142.392222 C72.423666,142.263702 71.681841,142.849602 71.132796,141.476517 C71.132796,141.476517 70.065891,141.640002 69.701121,140.383152 C69.565986,139.915377 71.625141,133.586712 72.854586,129.884202 C73.395126,128.257857 74.801286,127.076607 76.495671,126.821457 L92.248821,124.449507 C92.248821,124.449507 100.197216,126.373527 98.068131,134.324757" id="Fill-126" fill="#CE998A"></path>
                <polyline id="Stroke-128" stroke="#965C56" stroke-width="0.70875" stroke-linecap="round" stroke-linejoin="round" points="74.9830095 142.929455 79.6872195 136.454315 84.4292295 134.428235"></polyline>
                <polyline id="Stroke-130" stroke="#965C56" stroke-width="0.70875" stroke-linecap="round" stroke-linejoin="round" points="73.1086965 141.621764 76.9435065 134.915099 81.2999565 132.460934"></polyline>
                <polyline id="Stroke-132" stroke="#965C56" stroke-width="0.70875" stroke-linecap="round" stroke-linejoin="round" points="78.281343 130.624988 75.341448 132.949688 71.850618 140.129798"></polyline>
                <path d="M139.844691,106.765155 C139.844691,106.765155 153.097371,103.977405 155.789676,114.977205 C158.566086,126.320985 145.974906,129.58407 145.974906,129.58407 C145.974906,129.58407 137.058831,131.662125 126.081711,134.270325 C119.378826,135.86265 111.942621,137.47293 106.376571,137.86794 C100.349361,138.296025 98.986671,135.213435 97.640991,129.713535 C96.042051,123.18264 96.045831,120.31929 101.626056,118.08153 C106.945461,115.946775 114.424191,114.024645 120.151836,112.272615 C131.073201,108.93204 139.844691,106.765155 139.844691,106.765155" id="Fill-134" fill="#ADC6FF"></path>
                <polygon id="Fill-136" fill="#ADC6FF" points="94.864014 136.977466 91.751184 124.258711 100.121049 121.240381 103.681809 135.790546"></polygon>
                <path d="M128.129148,82.319328 C128.642283,87.120873 131.559498,105.614523 132.036723,108.973998 C128.831283,109.858518 124.923708,110.975508 120.683493,112.272993 C114.955848,114.025023 107.477118,115.947153 102.157713,118.080963 C99.315153,119.221578 97.925058,120.527568 97.451613,122.394888 L92.283408,124.258428 L95.395293,136.977183 L100.999143,136.223073 C102.254103,137.478033 104.055273,138.071493 106.908228,137.868318 C112.475223,137.473308 119.910483,135.863028 126.613368,134.270703 C137.591433,131.661558 146.506563,129.584448 146.506563,129.584448" id="Stroke-138" stroke="#597EF7" stroke-width="0.724815" stroke-linecap="round" stroke-linejoin="round"></path>
            </g>
        </g>
        <g id="编组-8" transform="translate(320.000000, 287.000000)">
            <g id="编组" transform="translate(18.900000, 0.000000)">
                <mask id="mask-10" fill="white">
                    <use xlink:href="#path-9"></use>
                </mask>
                <g id="Clip-68"></g>
                <polygon id="Fill-67" fill="#597EF7" mask="url(#mask-10)" points="-2.7594 41.3145 22.5468 41.3145 22.5468 -2.5047 -2.7594 -2.5047"></polygon>
            </g>
            <g id="编组" transform="translate(0.000000, 4.500000)">
                <mask id="mask-12" fill="white">
                    <use xlink:href="#path-11"></use>
                </mask>
                <g id="Clip-70"></g>
                <polygon id="Fill-69" fill="#CCD7EE" mask="url(#mask-12)" points="-2.2842 32.5125 17.6742 32.5125 17.6742 -2.7027 -2.2842 -2.7027"></polygon>
            </g>
            <g id="编组" transform="translate(42.300000, 4.500000)">
                <mask id="mask-14" fill="white">
                    <use xlink:href="#path-13"></use>
                </mask>
                <g id="Clip-72"></g>
                <polygon id="Fill-71" fill="#CCD7EE" mask="url(#mask-14)" points="-2.3859 32.5125 17.5725 32.5125 17.5725 -2.7027 -2.3859 -2.7027"></polygon>
            </g>
        </g>
        <g id="编组" transform="translate(18.000000, 16.000000)">
            <g>
                <g>
                    <mask id="mask-16" fill="white">
                        <use xlink:href="#path-15"></use>
                    </mask>
                    <g id="Clip-74"></g>
                    <polygon id="Stroke-73" stroke="#597EF7" stroke-width="1.0665" stroke-linejoin="round" mask="url(#mask-16)" points="24.00885 6.43923 46.33965 43.53993 69.58665 58.57533"></polygon>
                </g>
                <g>
                    <mask id="mask-18" fill="white">
                        <use xlink:href="#path-17"></use>
                    </mask>
                    <g id="Clip-76"></g>
                    <polygon id="Stroke-75" stroke="#597EF7" stroke-width="1.4661" stroke-linejoin="round" mask="url(#mask-18)" points="6.36129 73.20267 46.31139 43.57917 23.97879 6.44877"></polygon>
                </g>
                <g>
                    <mask id="mask-20" fill="white">
                        <use xlink:href="#path-19"></use>
                    </mask>
                    <g id="Clip-78"></g>
                    <polygon id="Stroke-77" stroke="#597EF7" stroke-width="1.0665" stroke-linejoin="round" mask="url(#mask-20)" points="6.35337 73.1781 69.50097 58.6026 46.29447 43.6095"></polygon>
                </g>
            </g>
            <g transform="translate(18.900000, 1.800000)">
                <mask id="mask-22" fill="white">
                    <use xlink:href="#path-21"></use>
                </mask>
                <g id="Clip-80"></g>
                <polygon id="Fill-79" fill="#597EF7" mask="url(#mask-22)" points="-7.1757 -1.62036 11.3679 -7.64586 17.3943 10.89864 -1.1511 16.92414"></polygon>
            </g>
            <g transform="translate(1.800000, 67.500000)">
                <mask id="mask-24" fill="white">
                    <use xlink:href="#path-23"></use>
                </mask>
                <g id="Clip-82"></g>
                <polygon id="Fill-81" fill="#597EF7" mask="url(#mask-24)" points="-7.72146 -0.83907 10.82304 -6.86457 16.84854 11.67993 -1.69596 17.70453"></polygon>
            </g>
            <g transform="translate(65.700000, 53.100000)">
                <mask id="mask-26" fill="white">
                    <use xlink:href="#path-25"></use>
                </mask>
                <g id="Clip-84"></g>
                <polygon id="Fill-83" fill="#597EF7" mask="url(#mask-26)" points="-7.29693 -0.86103 11.24667 -6.88653 17.27307 11.65797 -1.27233 17.68347"></polygon>
            </g>
            <g transform="translate(40.500000, 38.700000)">
                <mask id="mask-28" fill="white">
                    <use xlink:href="#path-27"></use>
                </mask>
                <g id="Clip-86"></g>
                <polygon id="Fill-85" fill="#597EF7" mask="url(#mask-28)" points="-7.0614 -1.16514 11.4822 -7.19064 17.5086 11.35386 -1.0368 17.37936"></polygon>
            </g>
        </g>
        <g id="2.通用组件/彩色版/时钟" transform="translate(276.000000, 0.000000)" fill-rule="nonzero">
            <g id="资源-5">
                <circle id="椭圆形" fill="#597EF7" cx="60.3612739" cy="60.3612739" r="60.3612739"></circle>
                <circle id="椭圆形" fill="#A3B5D6" cx="60.3612739" cy="60.3612739" r="56.0497543"></circle>
                <circle id="椭圆形" fill="#F4F6FB" cx="60.3612739" cy="60.3612739" r="54.0287295"></circle>
                <path d="M60.3612739,25.9930736 C61.5518671,25.9930736 62.5170337,26.9582401 62.5170337,28.1488333 L62.5170337,58.7808325 L58.2055141,58.7808325 L58.2055141,28.1488333 C58.2055141,26.9582401 59.1706806,25.9930736 60.3612739,25.9930736 Z" id="路径" fill="#253369"></path>
                <path d="M71.3367859,49.3857619 C72.5273791,49.3857619 73.4925457,50.3509284 73.4925457,51.5415217 L73.4925457,71.3367859 L69.1810261,71.3367859 L69.1810261,51.5415217 C69.1810261,50.3509284 70.1461926,49.3857619 71.3367859,49.3857619 Z" id="路径" fill="#253369" transform="translate(71.336786, 60.361274) rotate(90.000000) translate(-71.336786, -60.361274) "></path>
                <circle id="椭圆形" fill="#FF7946" cx="60.3612739" cy="60.3612739" r="4.98519449"></circle>
                <g id="编组" transform="translate(12.934559, 12.934559)" fill="#CED7EC">
                    <rect id="矩形" x="45.265566" y="0" width="4.31151956" height="8.62303913" rx="2.15575978"></rect>
                    <path d="M16.9357165,12.6307792 C18.1263097,12.6307792 19.0914763,13.5959457 19.0914763,14.786539 L19.0914763,19.0980585 C19.0914763,20.2886518 18.1263097,21.2538183 16.9357165,21.2538183 C15.7451232,21.2538183 14.7799567,20.2886518 14.7799567,19.0980585 L14.7799567,14.786539 C14.7799567,13.5959457 15.7451232,12.6307792 16.9357165,12.6307792 Z" id="矩形" transform="translate(16.935716, 16.942299) rotate(-45.000000) translate(-16.935716, -16.942299) "></path>
                    <path d="M4.31151956,43.120585 C5.50211281,43.120585 6.46727934,44.0857516 6.46727934,45.2763448 L6.46727934,49.5878644 C6.46727934,50.7784576 5.50211281,51.7436242 4.31151956,51.7436242 C3.12092631,51.7436242 2.15575978,50.7784576 2.15575978,49.5878644 L2.15575978,45.2763448 C2.15575978,44.0857516 3.12092631,43.120585 4.31151956,43.120585 Z" id="矩形" transform="translate(4.311520, 47.432105) rotate(-90.000000) translate(-4.311520, -47.432105) "></path>
                    <path d="M16.9430827,73.606662 C18.1336759,73.606662 19.0988425,74.5718285 19.0988425,75.7624218 L19.0988425,80.0739413 C19.0988425,81.2645346 18.1336759,82.2297011 16.9430827,82.2297011 C15.7524894,82.2297011 14.7873229,81.2645346 14.7873229,80.0739413 L14.7873229,75.7624218 C14.7873229,74.5718285 15.7524894,73.606662 16.9430827,73.606662 Z" id="矩形" transform="translate(16.943083, 77.918182) rotate(-135.000000) translate(-16.943083, -77.918182) "></path>
                    <rect id="矩形" transform="translate(47.432105, 90.541911) rotate(180.000000) translate(-47.432105, -90.541911) " x="45.2763448" y="86.2303913" width="4.31151956" height="8.62303913" rx="2.15575978"></rect>
                    <path d="M77.9173976,73.5983605 C79.1079908,73.5983605 80.0731574,74.563527 80.0731574,75.7541203 L80.0731574,80.0656398 C80.0731574,81.2562331 79.1079908,82.2213996 77.9173976,82.2213996 C76.7268043,82.2213996 75.7616378,81.2562331 75.7616378,80.0656398 L75.7616378,75.7541203 C75.7616378,74.563527 76.7268043,73.5983605 77.9173976,73.5983605 Z" id="矩形" transform="translate(77.917398, 77.909880) rotate(135.000000) translate(-77.917398, -77.909880) "></path>
                    <path d="M90.5419108,43.1098062 C91.7325041,43.1098062 92.6976706,44.0749728 92.6976706,45.265566 L92.6976706,49.5770856 C92.6976706,50.7676788 91.7325041,51.7328454 90.5419108,51.7328454 C89.3513176,51.7328454 88.386151,50.7676788 88.386151,49.5770856 L88.386151,45.265566 C88.386151,44.0749728 89.3513176,43.1098062 90.5419108,43.1098062 Z" id="矩形" transform="translate(90.541911, 47.421326) rotate(90.000000) translate(-90.541911, -47.421326) "></path>
                    <path d="M77.910664,12.6249809 C79.1012573,12.6249809 80.0664238,13.5901474 80.0664238,14.7807407 L80.0664238,19.0922602 C80.0664238,20.2828535 79.1012573,21.24802 77.910664,21.24802 C76.7200708,21.24802 75.7549042,20.2828535 75.7549042,19.0922602 L75.7549042,14.7807407 C75.7549042,13.5901474 76.7200708,12.6249809 77.910664,12.6249809 Z" id="矩形" transform="translate(77.910664, 16.936500) rotate(45.000000) translate(-77.910664, -16.936500) "></path>
                </g>
            </g>
        </g>
    </g>
</svg>