<?xml version="1.0" encoding="UTF-8"?>
<svg width="1441px" height="368px" viewBox="0 0 1441 368" version="1.1" xmlns="http://www.w3.org/2000/svg" xmlns:xlink="http://www.w3.org/1999/xlink">
    <title>Page 1</title>
    <defs>
        <polygon id="path-1" points="0 0.316727538 73.678112 0.316727538 73.678112 44.48 0 44.48"></polygon>
        <polygon id="path-3" points="0.078176 0.0934682491 75.0288 0.0934682491 75.0288 37.2810209 0.078176 37.2810209"></polygon>
        <polygon id="path-5" points="0.078176 0.142636759 71.1888 0.142636759 71.1888 34.0810209 0.078176 34.0810209"></polygon>
    </defs>
    <g id="Page-1" stroke="none" stroke-width="1" fill="none" fill-rule="evenodd">
        <path d="M0,230.193887 C258.206939,287.115178 514.477075,284.807848 768.810408,223.271897 C1023.14374,161.735947 1247.14374,124.311981 1440.81041,111 L1440.81041,367.321887 L0,367.321887 L0,230.193887 Z" id="路径-2" fill="#F1F5FF"></path>
        <rect id="矩形" fill="#CCD7EE" x="770" y="259" width="560" height="24" rx="12"></rect>
        <g id="2.通用组件/彩色版/盆栽01" transform="translate(1170.000000, 0.000000)">
            <g id="编组" transform="translate(0.320000, 0.320000)">
                <g transform="translate(0.000000, 122.578880)">
                    <mask id="mask-2" fill="white">
                        <use xlink:href="#path-1"></use>
                    </mask>
                    <g id="Clip-2"></g>
                    <path d="M0.078112,44.48 C0.078112,44.48 -3.121888,18.88 31.438112,7.36 C65.998112,-4.16 73.678112,1.92 73.678112,1.92 L70.478112,12.16 C70.478112,12.16 65.038112,37.76 40.078112,41.28 C15.118112,44.8 5.518112,39.68 0.078112,44.48" id="Fill-1" fill="#7CB305" mask="url(#mask-2)"></path>
                </g>
                <path d="M1.998112,162.57888 C1.998112,162.57888 7.758112,150.41888 27.598112,147.53888 C57.158112,143.248 70.478112,126.09888 70.478112,126.09888" id="Stroke-3" stroke="#BAE637" stroke-width="1.28"></path>
                <path d="M69.518112,184.33888 L73.678112,184.33888 L73.678112,124.49888 L69.518112,124.49888 L70.639072,142.88544 C70.958112,148.11712 70.992992,153.36256 70.744032,158.59808 L69.518112,184.33888 Z" id="Fill-5" fill="#7CB305"></path>
                <g id="编组-2" transform="translate(5.447328, 68.272348)">
                    <path d="M6.82121026e-13,11.1702758 C6.82121026e-13,11.1702758 12.7376,-8.19900425 43.08384,4.07395575 C73.42976,16.3465958 74.95072,26.1465958 74.95072,26.1465958 L66.97792,30.1168358 C66.97792,30.1168358 48.33312,44.4489958 29.21472,32.3033958 C10.09664,20.1577958 6.51808,11.0598758 6.82121026e-13,11.1702758" id="Fill-7" fill="#7CB305"></path>
                    <path d="M70.790784,132.706532 L73.990784,132.706532 L75.244544,27.0732518 C75.259904,25.7705318 74.401664,24.6182118 73.148864,24.2601318 L70.790784,23.5865318 C70.790784,23.5865318 71.594304,33.4015718 71.430784,45.6662118 C71.274304,57.3990118 70.150784,71.3599718 70.150784,81.7001318 C70.150784,110.946532 70.790784,132.706532 70.790784,132.706532" id="Fill-9" fill="#7CB305"></path>
                    <path d="M43.27072,10.4665958 C57.08,21.1840358 71.11072,28.0665958 71.11072,28.0665958 L66.97792,30.1168358 C66.97792,30.1168358 48.33312,44.4489958 29.21472,32.3033958 C10.09664,20.1577958 6.51808,11.0598758 6.82121026e-13,11.1702758 C6.82121026e-13,11.1702758 21.83072,-6.17340425 43.27072,10.4665958 Z" id="Fill-11" fill="#389E0D"></path>
                </g>
                <g id="编组-2备份" transform="translate(129.700000, 162.760000) scale(-1, 1) translate(-129.700000, -162.760000) translate(104.200000, 117.760000)" fill="#7CB305">
                    <path d="M0,7.49740338 C0,7.49740338 8.59248658,-5.50310874 29.0633492,2.73440784 C49.533996,10.9717096 50.56,17.5493945 50.56,17.5493945 L45.1817359,20.2141891 C45.1817359,20.2141891 32.6043906,29.8338249 19.7075658,21.6817914 C6.81095683,13.5297578 4.39694408,7.42330375 0,7.49740338" id="Fill-7"></path>
                    <path d="M47.802249,89.6 L50.013494,89.6 L50.8798598,18.3517466 C50.8904738,17.4730792 50.2974179,16.6958545 49.4317155,16.4543343 L47.802249,16 C47.802249,16 48.3574926,22.620115 48.244498,30.8924528 C48.1363681,38.8060716 47.36,48.2225548 47.36,55.1968563 C47.36,74.9231672 47.802249,89.6 47.802249,89.6" id="Fill-9"></path>
                </g>
                <g transform="translate(82.560000, 43.538880)">
                    <mask id="mask-4" fill="white">
                        <use xlink:href="#path-3"></use>
                    </mask>
                    <g id="Clip-14"></g>
                    <path d="M75.028896,11.263744 C75.028896,11.263744 62.291296,-8.105536 31.945056,4.167424 C1.599136,16.440064 0.078176,26.240064 0.078176,26.240064 L8.050976,30.210304 C8.050976,30.210304 26.695776,44.542464 45.814176,32.396864 C64.932256,20.251264 68.510816,11.153344 75.028896,11.263744" id="Fill-13" fill="#7CB305" mask="url(#mask-4)"></path>
                </g>
                <path d="M86.798112,180.49888 L83.598112,180.49888 L82.344352,70.7056 C82.328992,69.40288 83.187232,68.25056 84.440032,67.89248 L86.798112,67.21888 C86.798112,67.21888 85.994592,77.03392 86.158112,89.29856 C86.314592,101.03136 87.438112,114.99232 87.438112,125.33248 C87.438112,154.57888 86.798112,180.49888 86.798112,180.49888" id="Fill-15" fill="#7CB305"></path>
                <g transform="translate(86.400000, 46.738880)">
                    <mask id="mask-6" fill="white">
                        <use xlink:href="#path-5"></use>
                    </mask>
                    <g id="Clip-18"></g>
                    <path d="M71.188896,8.063744 C71.188896,8.063744 49.358176,-9.279936 27.918176,7.360064 C14.108896,18.077504 0.078176,24.960064 0.078176,24.960064 L4.210976,27.010304 C4.210976,27.010304 22.855776,41.342464 41.974176,29.196864 C61.092256,17.051264 64.670816,7.953344 71.188896,8.063744" id="Fill-17" fill="#389E0D" mask="url(#mask-6)"></path>
                </g>
                <path d="M92.558112,179.53888 L97.998112,179.53888 L100.149792,111.53248 L96.051872,47.3456 C96.067232,46.04288 95.208992,44.89056 93.956192,44.53248 L91.598112,43.85888 C91.598112,43.85888 96.718112,94.83232 96.718112,105.17248 C96.718112,134.41888 92.558112,179.53888 92.558112,179.53888" id="Fill-19" fill="#7CB305"></path>
                <path d="M31.34,7.9456 C31.34,7.9456 42.95824,-9.26112 70.47824,8.01888 C98.20016,25.4256 96.27536,48.26048 96.27536,48.26048 L87.41648,49.1824 C87.41648,49.1824 64.92912,56.06368 51.28592,37.98368 C37.64272,19.90368 37.4824,10.12864 31.34,7.9456" id="Fill-21" fill="#7CB305"></path>
                <path d="M31.34,7.9456 C31.34,7.9456 43.84688,-1.27392 54.47824,11.85888 C59.91824,18.57888 69.54256,23.64544 73.67824,27.53888 C84.4216,37.65408 92.00592,48.71168 92.00592,48.71168 L87.41648,49.1824 C87.41648,49.1824 64.92912,56.06368 51.28592,37.98368 C37.64272,19.90368 37.4824,10.12864 31.34,7.9456" id="Fill-23" fill="#389E0D"></path>
                <path d="M122.88,269.13888 L48.64,269.13888 C44.3984,269.13888 40.96,265.70048 40.96,261.45888 L40.96,187.21888 C40.96,182.97728 44.3984,179.53888 48.64,179.53888 L122.88,179.53888 C127.1216,179.53888 130.56,182.97728 130.56,187.21888 L130.56,261.45888 C130.56,265.70048 127.1216,269.13888 122.88,269.13888" id="Fill-25" fill="#253369"></path>
            </g>
        </g>
        <g id="Group" transform="translate(891.000000, 187.000000)" fill-rule="nonzero">
            <g id="资源-1" transform="translate(6.459961, 19.687500)">
                <rect id="矩形" fill="#FFC540" x="0" y="0" width="91.9775391" height="65.7275391" rx="28.8"></rect>
                <path d="M2.44230862,2.35839844 C1.09404722,2.35839844 0,3.55052952 0,5.02037879 L0.0154381076,12.8582035 L43.8905399,40.5271647 C45.6160304,41.7253201 47.9049378,41.7253201 49.6304283,40.5271647 L92.06464,12.8582035 L92.0800781,5.02037879 C92.0800781,3.55052952 90.9870601,2.35839844 89.6377695,2.35839844 L2.44230862,2.35839844 Z" id="路径-copy" fill="#E38E00"></path>
                <path d="M2.44230862,0 C1.09404722,0 0,1.19213108 0,2.66198035 L0.0154381076,10.499805 L43.8905399,38.1687662 C45.6160304,39.3669217 47.9049378,39.3669217 49.6304283,38.1687662 L92.06464,10.499805 L92.0800781,2.66198035 C92.0800781,1.19213108 90.9870601,0 89.6377695,0 L2.44230862,0 Z" id="路径" fill="#FFC540"></path>
            </g>
        </g>
    </g>
</svg>