<?xml version="1.0" encoding="UTF-8"?>
<svg width="507px" height="488px" viewBox="0 0 507 488" version="1.1" xmlns="http://www.w3.org/2000/svg" xmlns:xlink="http://www.w3.org/1999/xlink">
    <title>Group</title>
    <defs>
        <polygon id="path-1" points="0 0.223623798 252.766144 0.223623798 252.766144 31.8354479 0 31.8354479"></polygon>
        <polygon id="path-3" points="0 0.202450116 252.766144 0.202450116 252.766144 221.394989 0 221.394989"></polygon>
        <polygon id="path-5" points="0.0113298833 0.0579284419 46.1818528 0.0579284419 46.1818528 76.739704 0.0113298833 76.739704"></polygon>
        <polygon id="path-7" points="0 0.0144627789 41.0801354 0.0144627789 41.0801354 66.0205332 0 66.0205332"></polygon>
        <polygon id="path-9" points="0.726306118 0.255441667 46.7263061 0.255441667 46.7263061 49.2554417 0.726306118 49.2554417"></polygon>
        <polygon id="path-11" points="0.106128609 0.1120392 52.7285472 0.1120392 52.7285472 53.631586 0.106128609 53.631586"></polygon>
    </defs>
    <g id="Page-1" stroke="none" stroke-width="1" fill="none" fill-rule="evenodd">
        <g id="Group">
            <rect id="矩形备份-4" fill="#E4EBF7" fill-rule="nonzero" x="73.9575771" y="464" width="400" height="24" rx="12"></rect>
            <circle id="椭圆形" fill="#597EF7" fill-rule="nonzero" opacity="0.497093564" cx="258.510201" cy="234" r="211"></circle>
            <g id="2.通用组件/彩色版/折线图表01" transform="translate(252.092877, 0.000000)">
                <g id="分组-copy-2" transform="translate(0.523200, 0.632000)">
                    <g id="Fill-1-Clipped" transform="translate(0.000000, 0.147844)">
                        <mask id="mask-2" fill="white">
                            <use xlink:href="#path-1"></use>
                        </mask>
                        <g id="path-1"></g>
                        <path d="M252.766144,31.8354479 L-0.000222410323,31.8354479 L-0.000222410323,9.13874681 C-0.000222410323,4.21530859 3.98314647,0.223512357 8.89619049,0.223512357 L243.869731,0.223512357 C248.783146,0.223512357 252.766144,4.21530859 252.766144,9.13874681 L252.766144,31.8354479 Z" id="Fill-1" fill="#253369" fill-rule="nonzero" mask="url(#mask-2)"></path>
                    </g>
                    <g id="Fill-3-Clipped" transform="translate(0.000000, 29.122356)">
                        <mask id="mask-4" fill="white">
                            <use xlink:href="#path-3"></use>
                        </mask>
                        <g id="path-3"></g>
                        <path d="M243.869731,221.394989 L8.89619049,221.394989 C3.98314647,221.394989 -0.000222410323,217.403564 -0.000222410323,212.479755 L-0.000222410323,0.202450116 L252.766144,0.202450116 L252.766144,212.479755 C252.766144,217.403564 248.783146,221.394989 243.869731,221.394989" id="Fill-3" fill="#E4EBF7" fill-rule="nonzero" mask="url(#mask-4)"></path>
                    </g>
                    <path d="M20.5413726,15.0827565 C20.5413726,18.1726282 18.0414805,20.6778091 14.9577614,20.6778091 C11.874413,20.6778091 9.37489164,18.1726282 9.37489164,15.0827565 C9.37489164,11.9928848 11.874413,9.48770395 14.9577614,9.48770395 C18.0414805,9.48770395 20.5413726,11.9928848 20.5413726,15.0827565" id="Fill-5" fill="#FF7946" fill-rule="nonzero"></path>
                    <path d="M41.3919696,15.0827565 C41.3919696,18.1726282 38.8924483,20.6778091 35.8087292,20.6778091 C32.7253807,20.6778091 30.2258594,18.1726282 30.2258594,15.0827565 C30.2258594,11.9928848 32.7253807,9.48770395 35.8087292,9.48770395 C38.8924483,9.48770395 41.3919696,11.9928848 41.3919696,15.0827565" id="Fill-7" fill="#FFC53D" fill-rule="nonzero"></path>
                    <path d="M62.2429374,15.0827565 C62.2429374,18.1726282 59.743416,20.6778091 56.6596969,20.6778091 C53.5763485,20.6778091 51.0768271,18.1726282 51.0768271,15.0827565 C51.0768271,11.9928848 53.5763485,9.48770395 56.6596969,9.48770395 C59.743416,9.48770395 62.2429374,11.9928848 62.2429374,15.0827565" id="Fill-9" fill="#BAE637" fill-rule="nonzero"></path>
                    <path d="M27.3193668,220.430323 C25.7859439,220.430323 24.5433127,219.1857 24.5433127,217.650595 L24.5433127,56.5055687 C24.5433127,54.9704637 25.7859439,53.7258403 27.3193668,53.7258403 L228.20852,53.7258403 C229.741596,53.7258403 230.984574,54.9704637 230.984574,56.5055687 L230.984574,217.650595 C230.984574,219.1857 229.741596,220.430323 228.20852,220.430323 L27.3193668,220.430323 Z" id="Fill-11" fill="#FFFFFF" fill-rule="nonzero"></path>
                    <polyline id="路径" stroke="#FF7946" stroke-width="5.1620155" stroke-linecap="round" stroke-linejoin="round" points="46.7061677 168.121369 95.9908866 125.926325 137.883809 188.719368 171.316462 165.227071 212.633211 163.07104"></polyline>
                    <polyline id="路径" stroke="#FFC53D" stroke-width="5.1620155" stroke-linecap="round" stroke-linejoin="round" points="46.7061677 115.309212 97.2635738 116.135629 128.249312 95.2291015 171.765002 143.646151 208.523416 88.8344661"></polyline>
                    <polyline id="路径" stroke="#597EF7" stroke-width="5.1620155" stroke-linecap="round" stroke-linejoin="round" points="43.7406968 131.145816 97.9520642 165.065665 144.399675 124.442651 171.877319 132.592965 212.125595 126.179964"></polyline>
                    <path d="M96.1552108,74.8220338 L45.3018319,74.8220338 C43.2197006,74.8220338 41.5167789,73.1151379 41.5167789,71.0289731 C41.5167789,68.9424367 43.2197006,67.2359123 45.3018319,67.2359123 L96.1552108,67.2359123 C98.2369714,67.2359123 99.9402638,68.9424367 99.9402638,71.0289731 C99.9402638,73.1151379 98.2369714,74.8220338 96.1552108,74.8220338" id="Fill-1" fill="#CCD7EE" fill-rule="nonzero"></path>
                    <path d="M66.7531963,92.7114547 L47.8271899,92.7114547 C45.7369036,92.7114547 44.0417662,91.0131026 44.0417662,88.918394 C44.0417662,86.8233139 45.7369036,85.1253332 47.8271899,85.1253332 L66.7531963,85.1253332 C68.8438533,85.1253332 70.5382493,86.8233139 70.5382493,88.918394 C70.5382493,91.0131026 68.8438533,92.7114547 66.7531963,92.7114547" id="Fill-3" fill="#CCD7EE" fill-rule="nonzero"></path>
                    <g id="分组-3" transform="translate(190.902194, 178.304689)">
                        <path d="M25.947871,13.1872649 C25.947871,20.4705228 20.1393078,26.3742353 12.9740804,26.3742353 C5.80856315,26.3742353 0,20.4705228 0,13.1872649 C0,5.90400697 5.80856315,0 12.9740804,0 C20.1393078,0 25.947871,5.90400697 25.947871,13.1872649 Z" id="Stroke-9" stroke="#CCD7EE"></path>
                        <path d="M24.8358194,7.42936205 C25.5501198,9.09875953 25.947871,10.9557728 25.947871,12.9120427 C25.947871,14.5098694 25.6822448,16.0414267 25.1958598,17.4590008" id="Stroke-11" stroke="#597EF7"></path>
                    </g>
                </g>
            </g>
            <g id="2.通用组件/彩色版/盆栽02备份" transform="translate(258.510201, 335.000000)">
                <g id="分组" transform="translate(0.489377, 0.255410)">
                    <g id="Fill-1-Clipped" transform="translate(35.672556, 0.099915)">
                        <mask id="mask-6" fill="white">
                            <use xlink:href="#path-5"></use>
                        </mask>
                        <g id="path-5"></g>
                        <path d="M23.4953814,1.92391878 C41.2874631,-6.4918053 51.8915248,15.5795624 42.9435536,27.8686 C32.0241212,42.8649635 26.430633,60.1203784 23.3157559,65.3192588 C20.6881407,69.7049311 13.4903345,80.3970694 4.82300843,75.46889 C-3.15359597,70.9334245 1.19387835,53.1328193 1.19387835,53.1328193 C1.19387835,53.1328193 1.5461843,12.3058952 23.4953814,1.92391878 Z" id="Fill-1" fill="#389E0D" fill-rule="nonzero" mask="url(#mask-6)"></path>
                    </g>
                    <path d="M69.24294,72.7612326 C62.4015436,80.7785605 52.529085,96.9065017 46.3441583,91.2579261 C42.5956988,87.8347814 47.6069037,71.6231833 61.3239483,62.8025915 C72.991873,55.2996745 76.0844942,64.7439046 69.24294,72.7612326 Z" id="Fill-3" fill="#BAE637" fill-rule="nonzero"></path>
                    <path d="M5.65217436,72.1416192 C-0.396533602,63.9809697 -2.60507518,52.2699538 4.14635056,49.2668298 C10.619341,46.3877704 21.3417851,53.4768227 26.3083203,67.1203124 C31.2746977,80.7636443 34.1400247,90.5729657 29.2819277,92.2784611 C21.3113213,95.0767048 13.6414062,82.9200977 5.65217436,72.1416192" id="Fill-5" fill="#389E0D" fill-rule="nonzero"></path>
                    <g id="Fill-7-Clipped" transform="translate(0.000000, 15.410702)">
                        <mask id="mask-8" fill="white">
                            <use xlink:href="#path-7"></use>
                        </mask>
                        <g id="path-7"></g>
                        <path d="M3.77693441,1.7142557 C6.37850548,-0.0360671634 9.65154137,-0.435883903 12.6377762,0.520645683 C16.8054672,1.85552534 23.130085,5.8301741 29.3896714,17.2386046 C37.5620014,32.133475 41.8163482,48.4623505 40.9753598,58.8056553 C40.4255921,65.5698664 32.0922621,68.4860189 27.4303642,63.5540513 C25.2893795,61.288844 23.0240144,57.7973532 20.8075807,52.5004522 C11.8877055,31.1848375 3.54821967,17.8273596 2.55364988,16.4861662 C-0.0998515868,12.9072303 -1.99712644,5.59924955 3.77693441,1.7142557" id="Fill-7" fill="#BAE637" fill-rule="nonzero" mask="url(#mask-8)"></path>
                    </g>
                    <path d="M21.2801157,74.6423601 C21.2801157,74.6423601 33.2073767,87.1487476 33.2073767,111.201363" id="Stroke-9" stroke="#253369" stroke-width="0.5" stroke-linecap="round" stroke-linejoin="round"></path>
                    <path d="M41.7565572,108.849626 C41.7565572,108.849626 44.6651332,91.5733757 55.0179087,77.7074849" id="Stroke-11" stroke="#253369" stroke-width="0.5" stroke-linecap="round" stroke-linejoin="round"></path>
                    <path d="M62.1443066,22.1301485 C62.1443066,22.1301485 34.9502968,50.5087714 41.9681618,108.849657" id="Stroke-13" stroke="#253369" stroke-width="0.5" stroke-linecap="round" stroke-linejoin="round"></path>
                    <path d="M24.0869145,48.6324739 C24.0869145,48.6324739 38.5530828,72.5043586 38.7892162,111.201347" id="Stroke-15" stroke="#253369" stroke-width="0.5" stroke-linecap="round" stroke-linejoin="round"></path>
                    <path d="M9.75933246,25.6270534 C9.84756679,26.6795516 9.06592744,27.6041969 8.01358705,27.6924312 C6.96108882,27.7808234 6.03644355,26.999184 5.94805138,25.9466858 C5.85981705,24.8943454 6.64145641,23.9697002 7.69395464,23.881308 C8.74629503,23.7930736 9.67094029,24.574713 9.75933246,25.6270534" id="Fill-17" fill="#FFFFFF" fill-rule="nonzero"></path>
                    <path d="M26.0021519,33.7916648 C26.0905441,34.8440052 25.3089047,35.7688083 24.2564065,35.8570426 C23.2039082,35.9454348 22.279263,35.1637954 22.1908708,34.1112972 C22.1026365,33.0589568 22.8842758,32.1343115 23.9367741,32.0459194 C24.9891145,31.957685 25.9139176,32.7393244 26.0021519,33.7916648" id="Fill-19" fill="#FFFFFF" fill-rule="nonzero"></path>
                    <path d="M23.279815,55.5303938 C23.3809925,56.7356843 22.4858639,57.7946541 21.2805735,57.8956737 C20.0752831,57.9968512 19.0163133,57.1017226 18.9152936,55.8964321 C18.8141162,54.6912996 19.7092448,53.6323298 20.9145352,53.5311523 C22.1196678,53.4299748 23.1786376,54.3251034 23.279815,55.5303938" id="Fill-21" fill="#FFFFFF" fill-rule="nonzero"></path>
                    <path d="M73.1697465,23.0427662 C73.1697465,24.7533125 71.7832521,26.1399648 70.0727057,26.1399648 C68.3621593,26.1399648 66.9756649,24.7533125 66.9756649,23.0427662 C66.9756649,21.3323776 68.3621593,19.9457254 70.0727057,19.9457254 C71.7832521,19.9457254 73.1697465,21.3323776 73.1697465,23.0427662" id="Fill-23" fill="#FFFFFF" fill-rule="nonzero"></path>
                    <path d="M48.2376134,32.5003341 C48.2376134,34.2107226 46.8509612,35.5973748 45.1405726,35.5973748 C43.4300262,35.5973748 42.0435319,34.2107226 42.0435319,32.5003341 C42.0435319,30.7899455 43.4300262,29.4032933 45.1405726,29.4032933 C46.8509612,29.4032933 48.2376134,30.7899455 48.2376134,32.5003341" id="Fill-25" fill="#FFFFFF" fill-rule="nonzero"></path>
                    <path d="M56.3124278,53.5233706 C56.3124278,54.2382423 55.7328277,54.8178424 55.017956,54.8178424 C54.3030843,54.8178424 53.7234842,54.2382423 53.7234842,53.5233706 C53.7234842,52.8083411 54.3030843,52.228741 55.017956,52.228741 C55.7328277,52.228741 56.3124278,52.8083411 56.3124278,53.5233706" id="Fill-27" fill="#FFFFFF" fill-rule="nonzero"></path>
                    <line x1="25.9545148" y1="127.184341" x2="54.174821" y2="127.184341" id="Fill-29" fill="#A3B5D6" fill-rule="nonzero"></line>
                    <path d="M65.6382756,70.0781671 C65.6382756,71.1342957 64.7819764,71.990437 63.7260056,71.990437 C62.6697192,71.990437 61.8137357,71.1342957 61.8137357,70.0781671 C61.8137357,69.0220385 62.6697192,68.1658971 63.7260056,68.1658971 C64.7819764,68.1658971 65.6382756,69.0220385 65.6382756,70.0781671" id="Fill-31" fill="#FFFFFF" fill-rule="nonzero"></path>
                    <g id="Fill-33-Clipped" transform="translate(14.784317, 97.489148)">
                        <mask id="mask-10" fill="white">
                            <use xlink:href="#path-9"></use>
                        </mask>
                        <g id="path-9"></g>
                        <path d="M42.9479427,49.2554417 L4.50466951,49.2554417 C2.42656965,49.2554417 0.726306118,46.9153605 0.726306118,44.0552613 L0.726306118,5.45562208 C0.726306118,2.59530618 2.42656965,0.255441667 4.50466951,0.255441667 L42.9479427,0.255441667 C45.0258852,0.255441667 46.7263061,2.59530618 46.7263061,5.45562208 L46.7263061,44.0552613 C46.7263061,46.9153605 45.0258852,49.2554417 42.9479427,49.2554417" id="Fill-33" fill="#4E5C93" fill-rule="nonzero" mask="url(#mask-10)"></path>
                    </g>
                </g>
            </g>
            <g id="2.通用组件/彩色版/凳子" transform="translate(73.957577, 348.000000)" fill-rule="nonzero">
                <g id="编组" transform="translate(0.377695, 0.337062)">
                    <path d="M71.2164393,23.6591733 C71.2164393,29.0708768 66.8295486,33.4577675 61.4183542,33.4577675 C56.0071598,33.4577675 51.61976,29.0708768 51.61976,23.6591733 C51.61976,18.247979 56.0071598,13.8610882 61.4183542,13.8610882 C66.8295486,13.8610882 71.2164393,18.247979 71.2164393,23.6591733" id="Fill-1" fill="#132E55"></path>
                    <polygon id="Fill-3" fill="#132E55" points="59.5796478 111.843568 63.3724221 111.843568 63.3724221 26.585566 59.5796478 26.585566"></polygon>
                    <polygon id="Fill-5" fill="#132E55" points="59.580055 111.843365 15.4056892 119.201347 12.5547447 117.142558 59.580055 103.29155"></polygon>
                    <polygon id="Fill-6" fill="#132E55" points="63.3726766 111.843365 107.547042 119.201347 110.397478 117.142558 63.3726766 103.29155"></polygon>
                    <polygon id="Fill-7" fill="#132E55" points="58.4672703 121.735327 64.4853086 121.735327 64.4853086 109.382083 58.4672703 109.382083"></polygon>
                    <path d="M19.5445987,121.899511 C19.5445987,124.720419 17.257734,127.006775 14.4373354,127.006775 C11.6164277,127.006775 9.32956294,124.720419 9.32956294,121.899511 C9.32956294,119.078604 11.6164277,116.792248 14.4373354,116.792248 C17.257734,116.792248 19.5445987,119.078604 19.5445987,121.899511" id="Fill-8" fill="#132236"></path>
                    <path d="M66.5838582,121.899511 C66.5838582,124.720419 64.2969935,127.006775 61.4760858,127.006775 C58.6556872,127.006775 56.3688225,124.720419 56.3688225,121.899511 C56.3688225,119.078604 58.6556872,116.792248 61.4760858,116.792248 C64.2969935,116.792248 66.5838582,119.078604 66.5838582,121.899511" id="Fill-9" fill="#132236"></path>
                    <path d="M114.070105,121.899511 C114.070105,124.720419 111.78324,127.006775 108.962333,127.006775 C106.141934,127.006775 103.855069,124.720419 103.855069,121.899511 C103.855069,119.078604 106.141934,116.792248 108.962333,116.792248 C111.78324,116.792248 114.070105,119.078604 114.070105,121.899511" id="Fill-10" fill="#132236"></path>
                    <path d="M122.836607,21.860431 L0.000101819444,21.860431 C0.000101819444,9.78719043 9.78698679,0.000305458333 21.8602274,0.000305458333 L100.976481,0.000305458333 C113.049213,0.000305458333 122.836607,9.78719043 122.836607,21.860431" id="Fill-11" fill="#597EF7"></path>
                </g>
            </g>
            <g id="1.人物组件/6.产品经理/坐姿/专注工作" transform="translate(174.457577, 322.000000) scale(-1, 1) translate(-174.457577, -322.000000) translate(84.957577, 156.000000)">
                <path d="M89.3243534,135.180896 C89.3243534,135.180896 90.2303627,150.235086 104.005798,149.171791 C118.052713,148.088027 116.542338,132.892711 116.542338,132.892711 C116.542338,132.892711 117.225346,123.448022 116.24608,110.746655 C115.48012,100.82149 114.303709,87.8594162 113.208094,81.5561339 C112.027374,74.7529844 105.758565,70.2638753 99.3066152,70.7615879 C89.4999533,71.5178525 86.1743282,79.4187707 86.3908655,86.2844036 C86.6020163,92.961509 86.9187425,103.947814 87.3151889,111.301464 C88.0757627,125.442104 89.3243534,135.180896 89.3243534,135.180896" id="Fill-1" fill="#FFFFFF" fill-rule="nonzero"></path>
                <path d="M58.5708858,153.542397 C56.9129211,159.732563 43.1256357,157.630751 43.1256357,157.630751 L36.3677328,163.132522 C35.2968966,163.872627 34.8379668,163.150836 34.2551475,163.283344 C32.6855214,163.641007 32.3095437,161.992738 32.3095437,161.992738 C31.7094876,161.858076 30.9327543,162.47106 30.3574761,161.032864 C30.3574761,161.032864 29.2392387,161.204155 28.8578745,159.887694 C28.7145936,159.3986 30.8724255,152.768896 32.159799,148.890616 C32.7264588,147.187404 34.2002052,145.949587 35.9745183,145.682416 L52.4755224,143.198163 C52.4755224,143.198163 60.8008968,145.214868 58.5708858,153.542397" id="Fill-3" fill="#CE998A" fill-rule="nonzero"></path>
                <polyline id="Stroke-5" stroke="#965C56" stroke-width="0.7422597" stroke-linecap="round" stroke-linejoin="round" points="34.3894868 162.555304 39.3159797 155.772624 44.2844873 153.65142"></polyline>
                <polyline id="Stroke-7" stroke="#965C56" stroke-width="0.7422597" stroke-linecap="round" stroke-linejoin="round" points="32.426323 161.185518 36.4435747 154.160444 41.0070175 151.588929"></polyline>
                <polyline id="Stroke-9" stroke="#965C56" stroke-width="0.7422597" stroke-linecap="round" stroke-linejoin="round" points="37.8443879 149.666595 34.7654645 152.10237 31.1091083 159.623002"></polyline>
                <path d="M102.329842,124.674097 C102.329842,124.674097 116.213007,121.754614 119.032301,133.276337 C121.938857,145.158956 108.751628,148.576152 108.751628,148.576152 C108.751628,148.576152 99.4114365,150.753375 87.9123363,153.485408 C80.8926495,155.153068 73.1037705,156.84012 67.2734229,157.253803 C60.9604449,157.70196 59.5319451,154.473292 58.1228367,148.711892 C56.4487125,141.869959 56.4530217,138.872911 62.2973742,136.527629 C67.8691698,134.292231 75.7022181,132.278758 81.7027791,130.443038 C93.1426278,126.945045 102.329842,124.674097 102.329842,124.674097" id="Fill-11" fill="#FFFFFF" fill-rule="nonzero"></path>
                <polygon id="Fill-13" fill="#ADC6FF" fill-rule="nonzero" points="55.2136958 156.320862 51.9548633 142.997893 60.7208534 139.836017 64.450466 155.077657"></polygon>
                <path d="M45.6095663,180.69736 C73.1830598,173.534392 101.75952,166.410207 124.62198,161.263945 C124.62198,161.263945 141.876017,160.322385 142.78849,176.070356 C143.681572,191.505911 125.042127,196.090899 125.042127,196.090899 L50.165468,207.728971 C50.165468,207.728971 37.9499633,209.489279 35.9084798,195.935768 C34.0479827,183.572673 45.6095663,180.69736 45.6095663,180.69736" id="Fill-15" fill="#253369" fill-rule="nonzero"></path>
                <path d="M50.4679739,253.65287 L50.4679739,253.65287 C55.3632251,252.671449 59.8943489,256.507715 59.7209036,261.497768 C59.5216031,267.2387 59.2921382,274.99526 59.158553,283.350799 C59.0206586,291.950885 58.889228,299.077224 58.2740897,299.982156 C55.5625256,303.970321 50.1447839,305.453763 44.5772975,309.404222 C40.1711405,312.531624 39.4105667,314.017221 33.7956791,315.068665 C25.8365867,316.559649 29.5468079,313.18339 38.3838998,302.504116 C46.2578855,292.990479 45.7278539,288.528303 45.7278539,288.528303 L44.2627259,261.659363 C44.0537297,257.819866 46.6974239,254.409134 50.4679739,253.65287" id="Fill-17" fill="#CE998A" fill-rule="nonzero"></path>
                <path d="M39.1836873,299.978386 C33.4330599,306.370007 26.8432158,311.421466 27.0026562,314.45622 C27.1631739,317.492052 29.5558572,320.232703 39.4562442,316.719628 C46.2313839,314.315094 44.2922439,312.860739 50.7592758,308.653883 C53.9890212,306.55207 55.1665101,306.778303 58.1441673,304.332832 C59.8506105,302.138372 59.0824956,291.478489 59.0824956,291.478489 L47.7492996,303.897603 C47.7492996,303.897603 50.6957151,298.113579 48.2739447,296.859602 C45.8532516,295.605625 43.6243179,294.752403 42.1958181,295.781225 C40.7683956,296.808969 39.1836873,299.978386 39.1836873,299.978386" id="Fill-19" fill="#7D4556" fill-rule="nonzero"></path>
                <path d="M33.5730011,196.146703 C37.2896861,241.266182 41.5202432,285.413936 41.5202432,285.413936 L60.6218495,285.401008 L63.6059705,194.523212 C63.6059705,194.523212 61.930769,184.094948 47.1760682,182.196746 C33.6053201,180.450442 33.5730011,196.146703 33.5730011,196.146703" id="Fill-21" fill="#253369" fill-rule="nonzero"></path>
                <path d="M166.357767,150.689599 C122.49442,151.943576 111.567367,151.366143 111.567367,151.366143 C111.567367,151.366143 111.120287,157.804088 109.099272,177.621022 C109.099272,177.621022 122.604305,202.229786 140.03071,202.229786 C155.742053,202.229786 170.573242,181.665206 170.573242,181.665206 C168.853871,163.4653 166.357767,157.172712 166.357767,150.689599 Z" id="Fill-23" fill="#253369" fill-rule="nonzero"></path>
                <path d="M166.35766,150.689707 L165.528139,142.435434 L111.817192,143.07966 L111.567259,151.34686 C111.567259,151.34686 139.992897,152.441397 166.35766,150.689707" id="Fill-25" fill="#597EF7" fill-rule="nonzero"></path>
                <g id="Fill-27-Clipped" transform="translate(95.041800, 0.923461)">
                    <mask id="mask-12" fill="white">
                        <use xlink:href="#path-11"></use>
                    </mask>
                    <g id="path-11"></g>
                    <path d="M47.1691496,40.4976461 C47.1691496,40.4976461 54.6294521,35.9255849 51.6420992,27.8038202 C54.6671576,20.5438955 50.4150545,16.3704353 50.4150545,16.3704353 C50.4150545,16.3704353 49.7988389,7.07225904 43.6075958,6.85787634 C39.2466854,-2.49093306 28.5824927,1.79672094 28.5824927,1.79672094 C28.5824927,1.79672094 21.3570416,-3.52298646 11.8164728,4.74205914 C4.56732108,5.36797044 4.35832488,1.76332464 2.15093718,4.38870474 C-0.05752782,7.01300754 -0.80517402,12.9370802 2.42349408,15.0916802 C-2.83049802,17.6750456 2.49244128,25.9637918 2.49244128,25.9637918 C2.49244128,25.9637918 0.98422128,30.9926282 7.36399188,34.3968962 C13.7448398,37.8022415 16.6923326,49.4284631 27.172307,52.6054208 C37.2569123,55.6627982 47.597915,51.96335 47.1691496,40.4976461" id="Fill-27" fill="#7D4556" fill-rule="nonzero" mask="url(#mask-12)"></path>
                </g>
                <path d="M139.168439,59.072452 L136.136917,43.1618083 L115.011064,46.9054258 L115.5314,60.9426448 C115.763019,67.2092989 121.116123,72.0517624 127.375236,71.655316 C127.494816,71.6477749 127.613319,71.6402338 127.733977,71.6326927 C134.134216,71.2297825 139.948404,65.4382177 139.168439,59.072452" id="Fill-29" fill="#CE998A" fill-rule="nonzero"></path>
                <path d="M130.443817,18.8709556 C130.443817,18.8709556 129.299725,24.5806456 133.7145,25.8831013 C133.086434,33.2324419 136.253696,32.5375834 136.253696,32.5375834 C136.253696,32.5375834 141.228667,25.9455847 144.819308,31.5637042 C148.231117,36.9006484 142.620539,44.9480794 137.273899,43.8115279 C128.646881,58.1643958 110.919909,59.1802897 104.887029,49.9758385 C101.222055,44.3824969 102.381229,36.1368427 101.863048,32.281186 C100.587525,22.8063325 102.289659,19.9008544 102.289659,19.9008544 C102.289659,19.9008544 105.934165,20.6107951 109.85015,17.5641907 C114.167969,20.6474233 120.218086,17.4166006 120.218086,17.4166006 C120.218086,17.4166006 124.404473,22.5725584 130.443817,18.8709556" id="Fill-31" fill="#CE998A" fill-rule="nonzero"></path>
                <path d="M142.736995,34.3303183 C142.736995,34.3303183 142.592637,32.659426 140.388481,33.1302061 C138.185403,33.6009862 137.341877,36.5872618 138.056127,36.9783217 C139.382283,37.7054992 140.640569,39.2805118 138.381471,40.7380987" id="Stroke-33" stroke="#965C56" stroke-width="0.807975" stroke-linecap="round" stroke-linejoin="round"></path>
                <path d="M138.893835,36.1455688 C138.893835,36.1455688 141.514906,35.6381605 141.508466,37.1819314" id="Stroke-35" stroke="#965C56" stroke-width="0.807975" stroke-linecap="round" stroke-linejoin="round"></path>
                <path d="M116.435685,32.1766879 C116.771803,36.0549679 120.185767,38.9270497 124.065124,38.5930867 C127.943404,38.2580464 130.815486,34.8419281 130.480445,30.9636481 C130.146482,27.0853681 126.730364,24.212209 122.852084,24.5472493 C118.972727,24.8822896 116.100645,28.2984079 116.435685,32.1766879" id="Fill-37" fill="#FFFFFF" fill-rule="nonzero"></path>
                <path d="M116.435685,32.1766879 C116.771803,36.0549679 120.185767,38.9270497 124.065124,38.5930867 C127.943404,38.2580464 130.815486,34.8419281 130.480445,30.9636481 C130.146482,27.0853681 126.730364,24.212209 122.852084,24.5472493 C118.972727,24.8822896 116.100645,28.2984079 116.435685,32.1766879 Z" id="Stroke-39" stroke="#7D4556" stroke-width="0.9932706"></path>
                <path d="M99.3472295,32.9904803 C99.6833471,36.8687603 103.097311,39.7408421 106.976668,39.4068791 C110.854948,39.0718388 113.728107,35.6557205 113.39199,31.7774405 C113.058027,27.8991605 109.641908,25.0260014 105.763628,25.3610417 C101.884271,25.696082 99.0121892,29.1122003 99.3472295,32.9904803" id="Fill-41" fill="#FFFFFF" fill-rule="nonzero"></path>
                <path d="M99.3472295,32.9904803 C99.6833471,36.8687603 103.097311,39.7408421 106.976668,39.4068791 C110.854948,39.0718388 113.728107,35.6557205 113.39199,31.7774405 C113.058027,27.8991605 109.641908,25.0260014 105.763628,25.3610417 C101.884271,25.696082 99.0121892,29.1122003 99.3472295,32.9904803 Z" id="Stroke-43" stroke="#7D4556" stroke-width="0.9932706"></path>
                <path d="M114.503117,31.3766849 C114.503117,31.3766849 111.02667,37.5075992 112.360367,39.043829 C114.021564,40.9571138 117.097255,39.7559243 117.097255,39.7559243" id="Stroke-45" stroke="#965C56" stroke-width="0.807975" stroke-linecap="round" stroke-linejoin="round"></path>
                <path d="M122.148392,41.9387496 C122.148392,41.9387496 115.714756,43.2422826 111.00911,42.9007785 C111.00911,42.9007785 112.710166,47.4297477 117.303774,46.472028 C121.382431,45.620961 122.148392,41.9387496 122.148392,41.9387496" id="Fill-47" fill="#FFFFFF" fill-rule="nonzero"></path>
                <path d="M122.148392,41.9387496 C122.148392,41.9387496 115.714756,43.2422826 111.00911,42.9007785 C111.00911,42.9007785 112.710166,47.4297477 117.303774,46.472028 C121.382431,45.620961 122.148392,41.9387496 122.148392,41.9387496 Z" id="Stroke-49" stroke="#7D4556" stroke-width="0.8489124" stroke-linecap="round" stroke-linejoin="round"></path>
                <path d="M110.941886,23.4095128 C109.109399,24.4728079 106.450622,25.1676664 103.357694,24.5977747" id="Stroke-51" stroke="#7D4556" stroke-width="0.8489124" stroke-linecap="round" stroke-linejoin="round"></path>
                <path d="M117.096393,29.998495 C117.096393,29.998495 114.542115,29.6580682 112.918624,30.3593905" id="Stroke-53" stroke="#7D4556" stroke-width="0.9932706"></path>
                <path d="M104.267689,33.9852591 C104.267689,33.9852591 104.042534,31.3857342 106.27039,31.1939748 C108.499324,31.0011381 108.892538,33.3992079 108.892538,33.3992079" id="Stroke-55" stroke="#7D4556" stroke-width="0.9932706" stroke-linecap="round" stroke-linejoin="round"></path>
                <path d="M121.161585,32.5260563 C121.161585,32.5260563 120.937506,29.9265314 123.164286,29.734772 C125.393219,29.5419353 125.787511,31.9400051 125.787511,31.9400051" id="Stroke-57" stroke="#7D4556" stroke-width="0.9932706" stroke-linecap="round" stroke-linejoin="round"></path>
                <g id="分组" transform="translate(130.275400, 30.010561)">
                    <line x1="0.2052608" y1="0.95319504" x2="7.1452274" y2="0.35313894" id="Fill-59" fill="#FFFFFF" fill-rule="nonzero"></line>
                    <line x1="0.2052608" y1="0.95319504" x2="7.1452274" y2="0.35313894" id="Stroke-61" stroke="#7D4556" stroke-width="0.9932706"></line>
                </g>
                <path d="M127.310813,23.2095659 C127.310813,23.2095659 122.122536,23.8893422 118.704264,22.5103982" id="Stroke-62" stroke="#7D4556" stroke-width="0.8489124" stroke-linecap="round" stroke-linejoin="round"></path>
                <path d="M117.669732,51.2562096 C117.669732,51.2562096 117.827018,54.7035696 119.005584,55.3488723" id="Stroke-64" stroke="#965C56" stroke-width="0.807975" stroke-linecap="round" stroke-linejoin="round"></path>
                <path d="M116.246404,52.6417251 C116.246404,52.6417251 116.26364,54.4634394 116.638541,55.553667" id="Stroke-66" stroke="#965C56" stroke-width="0.807975" stroke-linecap="round" stroke-linejoin="round"></path>
                <path d="M119.63602,52.9099728 C119.63602,52.9099728 120.222072,54.8232576 120.954636,55.1809212" id="Stroke-68" stroke="#965C56" stroke-width="0.807975" stroke-linecap="round" stroke-linejoin="round"></path>
                <line x1="114.95763" y1="52.3324323" x2="114.605353" y2="54.7477389" id="Stroke-70" stroke="#965C56" stroke-width="0.807975" stroke-linecap="round" stroke-linejoin="round"></line>
                <path d="M114.526279,55.4559559 C114.526279,55.4559559 122.200964,56.616208 129.104302,52.091548" id="Stroke-72" stroke="#965C56" stroke-width="0.807975" stroke-linecap="round" stroke-linejoin="round"></path>
                <path d="M120.979521,39.2338647 C120.979521,39.2338647 125.394297,40.5352431 125.01401,42.6262824" id="Stroke-74" stroke="#965C56" stroke-width="0.807975" stroke-linecap="round" stroke-linejoin="round"></path>
                <path d="M142.527891,64.0755483 C142.527891,64.0755483 158.179983,65.9810144 165.822349,70.6523032 C172.733229,74.8764689 171.86277,119.469622 170.799475,134.477217 C174.522624,152.097585 167.256882,150.676411 160.629763,150.676411 C156.211684,150.676411 139.685543,152.059687 111.05134,154.826239 C111.05134,154.826239 103.794647,150.644708 107.402525,138.228022 C106.477124,128.131129 90.3208559,79.7062733 96.5616548,73.3733044 C101.414891,68.4483907 113.129452,67.4852722 113.129452,67.4852722 L113.914803,62.5483332 C113.914803,62.5483332 121.434357,61.6770443 140.272025,59.8262388 L142.527891,64.0755483 Z" id="Fill-76" fill="#FFFFFF" fill-rule="nonzero"></path>
                <path d="M108.694746,138.087236 C108.694746,138.087236 100.710876,110.304746 98.9882731,92.5885477" id="Stroke-78" stroke="#597EF7" stroke-width="0.8262891" stroke-linecap="round" stroke-linejoin="round"></path>
                <path d="M115.203793,68.781295 C115.203793,68.781295 126.243963,70.0277311 138.776194,66.7258066" id="Stroke-80" stroke="#597EF7" stroke-width="0.8262891" stroke-linecap="round" stroke-linejoin="round"></path>
                <path d="M89.5516637,262.474341 L89.5516637,262.474341 C94.8713711,261.595264 99.6211868,265.902309 99.2516729,271.282346 C98.8261394,277.471434 98.2939532,285.835591 97.8436418,294.850438 C97.3793255,304.128145 96.9764153,311.815758 96.2783249,312.770246 C93.2069426,316.974948 87.3022613,318.37867 81.1476464,322.439013 C76.2782504,325.652599 75.4024055,327.228689 69.3027329,328.157322 C60.6563231,329.47486 64.785614,325.967171 74.7161654,314.763251 C83.562953,304.782066 83.1557336,299.946067 83.1557336,299.946067 L82.5599867,270.890208 C82.4759573,266.737217 85.4525372,263.151963 89.5516637,262.474341" id="Fill-82" fill="#CE998A" fill-rule="nonzero"></path>
                <path d="M75.6708687,312.065907 C69.229692,318.753786 61.9309845,323.964686 61.9934679,327.247219 C62.0537967,330.529752 64.5369732,333.575279 75.3519879,330.146233 C82.7541162,327.798796 80.7147873,326.159146 87.8486679,321.854255 C91.411299,319.703964 92.6738946,319.991603 95.9779737,317.461026 C97.9009542,315.155604 97.4635704,303.620952 97.4635704,303.620952 L84.7740537,316.609959 C84.7740537,316.609959 88.1675487,310.474735 85.5992655,309.033308 C83.0320596,307.590803 80.6566131,306.587837 79.0772913,307.644668 C77.4979695,308.701499 75.6708687,312.065907 75.6708687,312.065907" id="Fill-84" fill="#7D4556" fill-rule="nonzero"></path>
                <path d="M73.968627,199.143968 C76.2858993,247.985518 79.1956866,295.796092 79.1956866,295.796092 L99.8141313,296.500646 L106.44599,198.518056 C106.44599,198.518056 105.226486,183.876472 89.1747165,184.597186 C74.6914953,185.246798 73.968627,199.143968 73.968627,199.143968" id="Fill-86" fill="#253369" fill-rule="nonzero"></path>
                <path d="M82.6227933,183.148648 C104.915362,174.882525 133.384092,168.872268 154.006846,164.679417 C154.006846,164.679417 169.477951,166.742446 170.52401,181.947459 C171.548522,196.849749 154.73941,200.642923 154.73941,200.642923 L87.12483,209.347507 C87.12483,209.347507 76.0911234,210.633803 74.0550264,197.505825 C72.1966839,185.531636 82.6227933,183.148648 82.6227933,183.148648" id="Fill-88" fill="#253369" fill-rule="nonzero"></path>
                <line x1="111.92977" y1="153.354624" x2="166.933476" y2="153.354624" id="Stroke-90" stroke="#4E5C93" stroke-width="0.807975" stroke-linecap="round" stroke-linejoin="round"></line>
                <line x1="111.120718" y1="159.623217" x2="166.325879" y2="159.623217" id="Stroke-92" stroke="#4E5C93" stroke-width="0.807975" stroke-linecap="round" stroke-linejoin="round"></line>
                <line x1="128.411275" y1="153.253573" x2="128.107477" y2="159.623648" id="Stroke-94" stroke="#4E5C93" stroke-width="0.807975" stroke-linecap="round" stroke-linejoin="round"></line>
                <polygon id="Fill-96" fill="#BAC9E5" fill-rule="nonzero" points="79.4698594 182.94827 141.616065 169.47017 78.4065643 154.182206 27.513835 170.488218"></polygon>
                <polygon id="Fill-98" fill="#4E5C93" fill-rule="nonzero" points="76.858592 178.710603 121.993153 168.922255 77.1548495 157.673089 39.1240049 169.661283"></polygon>
                <polygon id="Fill-100" fill="#253368" fill-rule="nonzero" points="141.761715 172.70918 141.630285 169.491285 78.1762376 182.731302 79.4539154 186.102174"></polygon>
                <line x1="105.46597" y1="172.216315" x2="68.8808623" y2="161.10612" id="Stroke-102" stroke="#BAC9E5" stroke-width="0.5985" stroke-linecap="round" stroke-linejoin="round"></line>
                <line x1="114.393663" y1="170.594009" x2="73.5273649" y2="158.927928" id="Stroke-104" stroke="#BAC9E5" stroke-width="0.5985" stroke-linecap="round" stroke-linejoin="round"></line>
                <line x1="99.2736499" y1="174.205119" x2="68.5231987" y2="164.398457" id="Stroke-106" stroke="#BAC9E5" stroke-width="0.5985" stroke-linecap="round" stroke-linejoin="round"></line>
                <line x1="91.0738886" y1="175.49497" x2="60.3234374" y2="165.688308" id="Stroke-108" stroke="#BAC9E5" stroke-width="0.5985" stroke-linecap="round" stroke-linejoin="round"></line>
                <line x1="83.5318191" y1="177.222421" x2="52.7813679" y2="167.415759" id="Stroke-110" stroke="#BAC9E5" stroke-width="0.5985" stroke-linecap="round" stroke-linejoin="round"></line>
                <line x1="114.481032" y1="167.635097" x2="75.7801069" y2="174.650475" id="Stroke-112" stroke="#BAC9E5" stroke-width="0.5985" stroke-linecap="round" stroke-linejoin="round"></line>
                <line x1="105.663763" y1="165.07651" x2="66.96176" y2="172.091887" id="Stroke-114" stroke="#BAC9E5" stroke-width="0.5985" stroke-linecap="round" stroke-linejoin="round"></line>
                <line x1="94.8318342" y1="163.649949" x2="56.130909" y2="170.665327" id="Stroke-116" stroke="#BAC9E5" stroke-width="0.5985" stroke-linecap="round" stroke-linejoin="round"></line>
                <line x1="87.2792071" y1="158.666898" x2="48.5772046" y2="165.682275" id="Stroke-118" stroke="#BAC9E5" stroke-width="0.5985" stroke-linecap="round" stroke-linejoin="round"></line>
                <polygon id="Fill-120" fill="#253368" fill-rule="nonzero" points="79.4034977 186.10756 76.5992858 186.511548 27.3903764 174.060114 3.22115094 93.4328277 55.8860387 100.879125"></polygon>
                <path d="M76.4998511,186.522105 L24.6073874,173.414596 C24.1333754,173.296093 23.7563204,172.935198 23.6151941,172.466572 L0.30026745,94.9871562 C0.00616455,94.013277 0.82275795,93.0641757 1.82895615,93.2074566 L51.789821,100.341337 C52.3360121,100.41998 52.7863235,100.815349 52.9339136,101.348613 L76.4998511,186.522105 Z" id="Fill-122" fill="#4E5C93" fill-rule="nonzero"></path>
                <path d="M151.666843,133.831147 C151.666843,133.831147 153.364667,148.81639 167.065769,147.030226 C181.036195,145.208512 178.726464,130.112307 178.726464,130.112307 C178.726464,130.112307 178.91176,120.646072 177.264568,108.013652 C175.977194,98.1423524 174.119929,85.2610763 172.694661,79.022432 C171.156277,72.2914616 164.660158,68.1395474 158.242682,68.9755322 C148.490962,70.2478235 145.584407,78.3124913 146.162917,85.1576555 C146.725268,91.8142922 147.620504,102.768279 148.402624,110.091764 C149.907612,124.172075 151.666843,133.831147 151.666843,133.831147" id="Fill-124" fill="#FFFFFF" fill-rule="nonzero"></path>
                <path d="M112.037069,153.088423 C110.232592,159.825857 95.2268801,157.538749 95.2268801,157.538749 L87.872153,163.526383 C86.7075917,164.331126 86.2066472,163.546851 85.5731948,163.690132 C83.864597,164.080115 83.4563003,162.285333 83.4563003,162.285333 C82.8023792,162.13882 81.9566987,162.806746 81.3307874,161.241429 C81.3307874,161.241429 80.1145157,161.427802 79.6986779,159.994993 C79.544624,159.46173 81.8920607,152.247052 83.293628,148.02619 C83.9098436,146.172157 85.512866,144.825532 87.4444649,144.534661 L105.403056,141.830638 C105.403056,141.830638 114.464226,144.024021 112.037069,153.088423" id="Fill-126" fill="#CE998A" fill-rule="nonzero"></path>
                <polyline id="Stroke-128" stroke="#965C56" stroke-width="0.807975" stroke-linecap="round" stroke-linejoin="round" points="85.7200308 162.897778 91.0828302 155.516119 96.4887216 153.206387"></polyline>
                <polyline id="Stroke-130" stroke="#965C56" stroke-width="0.807975" stroke-linecap="round" stroke-linejoin="round" points="83.583314 161.40701 87.9549974 153.761412 92.9213504 150.963664"></polyline>
                <polyline id="Stroke-132" stroke="#965C56" stroke-width="0.807975" stroke-linecap="round" stroke-linejoin="round" points="89.480131 148.870686 86.1286507 151.520844 82.1491045 159.706169"></polyline>
                <path d="M159.662348,121.670477 C159.662348,121.670477 174.770403,118.492442 177.839631,131.032214 C181.004738,143.964123 166.650793,147.68404 166.650793,147.68404 C166.650793,147.68404 156.486467,150.053022 143.972551,153.02637 C136.331262,154.841621 127.853988,156.67734 121.508691,157.127652 C114.637672,157.615668 113.084205,154.101516 111.55013,147.83163 C109.727338,140.38641 109.731647,137.122191 116.093104,134.571144 C122.157226,132.137523 130.682978,129.946295 137.212493,127.948981 C149.662849,124.140726 159.662348,121.670477 159.662348,121.670477" id="Fill-134" fill="#FFFFFF" fill-rule="nonzero"></path>
                <polygon id="Fill-136" fill="#FFFFFF" fill-rule="nonzero" points="108.384376 156.112512 104.83575 141.613131 114.377396 138.172235 118.436662 154.759423"></polygon>
                <path d="M146.306629,93.8022339 C146.891603,99.2759952 150.217228,120.358756 150.761264,124.188558 C147.107063,125.196911 142.652427,126.470279 137.818582,127.949412 C131.289067,129.946726 122.763315,132.137954 116.699193,134.570498 C113.458674,135.870799 111.873966,137.359628 111.334239,139.488372 L105.442485,141.612808 L108.990034,156.112189 L115.378423,155.252503 C116.809077,156.683158 118.862411,157.359702 122.11478,157.128083 C128.461154,156.677771 136.937351,154.842052 144.57864,153.026801 C157.093634,150.052376 167.256882,147.684471 167.256882,147.684471" id="Stroke-138" stroke="#597EF7" stroke-width="0.8262891" stroke-linecap="round" stroke-linejoin="round"></path>
            </g>
            <g id="2.通用组件/彩色版/关联备份" opacity="0.199102493" transform="translate(86.943680, 78.524632) rotate(-10.000000) translate(-86.943680, -78.524632) translate(9.943680, 14.524632)" fill="#597EF7" fill-rule="nonzero">
                <g id="编组" transform="translate(76.822661, 63.939637) rotate(-165.000000) translate(-76.822661, -63.939637) translate(10.322661, 15.939637)">
                    <path d="M15.4309677,14.5652712 C23.5767996,14.5652712 30.200049,21.1022474 30.368537,29.2302803 L30.3718247,29.5477511 C31.4040678,56.904464 57.7433946,64.0326668 66.7179407,65.6702636 C74.8179145,65.8445081 81.3308188,72.483889 81.3308188,80.6487093 C81.3308188,88.9233189 74.6415837,95.6311892 66.3899619,95.6311892 C59.696272,95.6311892 54.0306957,91.2171397 52.1299461,85.133378 L52.0716407,85.1969621 C44.5323182,48.1667948 21.55346,44.7711285 15.488664,44.5290207 L15.4309677,44.530231 L15.4309677,44.530231 C15.1927717,44.530231 14.9558776,44.5246415 14.7204087,44.5135861 C14.2561366,44.5121365 14.008029,44.530231 14.008029,44.530231 L14.008029,44.530231 L14.0743774,44.4693039 C6.45848531,43.7819499 0.490110823,37.3638009 0.490110823,29.5477511 C0.490110823,21.2731415 7.17934591,14.5652712 15.4309677,14.5652712 Z" id="形状结合"></path>
                    <path d="M127.111392,7.16485928 C129.72538,10.4892244 129.19891,15.3427651 125.935751,18.0056026 C124.494047,19.1819978 122.759381,19.7339886 121.046622,19.6969875 C103.504615,21.9700687 100.686533,32.9829263 100.242598,35.9841979 C100.242496,35.9928436 100.241532,36.0018792 100.240552,36.0109167 C100.227322,36.132892 100.211367,36.2538872 100.192757,36.3738462 C100.171656,36.5600465 100.164321,36.6797902 100.162101,36.7229298 L100.161264,36.7409173 L100.134849,36.7015256 C99.3666487,40.5711109 95.8108142,43.2714022 91.8848322,42.8294354 C87.7290408,42.3617976 84.7326479,38.5505496 85.1916758,34.3169887 C85.6418762,30.1666151 89.2463408,27.1508299 93.303448,27.4749945 L93.5473783,27.498416 C107.341323,28.5152133 112.387429,15.4092766 113.710267,10.8952465 C113.971349,9.02254016 114.906603,7.24328934 116.47042,5.96716695 C119.733578,3.30432944 124.497758,3.84067402 127.111392,7.16485928 Z" id="形状结合" transform="translate(106.959405, 23.575359) rotate(11.000000) translate(-106.959405, -23.575359) "></path>
                </g>
            </g>
        </g>
    </g>
</svg>